<svg width="218" height="217" viewBox="0 0 218 217" fill="none" xmlns="http://www.w3.org/2000/svg">
<path d="M0.668945 4.92752C0.668945 2.20613 2.87507 0 5.59647 0C8.31786 0 10.524 2.20613 10.524 4.92752C10.524 7.64892 8.31786 9.85505 5.59647 9.85505C2.87507 9.85505 0.668945 7.64892 0.668945 4.92752Z" fill="#3C1DFE"/>
<path d="M30.2341 4.92752C30.2341 2.20613 32.4402 0 35.1616 0C37.883 0 40.0891 2.20613 40.0891 4.92752C40.0891 7.64892 37.883 9.85505 35.1616 9.85505C32.4402 9.85505 30.2341 7.64892 30.2341 4.92752Z" fill="#3C1DFE"/>
<path d="M59.7992 4.92752C59.7992 2.20613 62.0054 0 64.7268 0C67.4482 0 69.6543 2.20613 69.6543 4.92752C69.6543 7.64892 67.4482 9.85505 64.7268 9.85505C62.0054 9.85505 59.7992 7.64892 59.7992 4.92752Z" fill="#3C1DFE"/>
<path d="M89.3644 4.92752C89.3644 2.20613 91.5705 0 94.2919 0C97.0133 0 99.2194 2.20613 99.2194 4.92752C99.2194 7.64892 97.0133 9.85505 94.2919 9.85505C91.5705 9.85505 89.3644 7.64892 89.3644 4.92752Z" fill="#3C1DFE"/>
<path d="M118.93 4.92752C118.93 2.20613 121.136 0 123.857 0C126.578 0 128.785 2.20613 128.785 4.92752C128.785 7.64892 126.578 9.85505 123.857 9.85505C121.136 9.85505 118.93 7.64892 118.93 4.92752Z" fill="#3C1DFE"/>
<path d="M148.495 4.92752C148.495 2.20613 150.701 0 153.422 0C156.144 0 158.35 2.20613 158.35 4.92752C158.35 7.64892 156.144 9.85505 153.422 9.85505C150.701 9.85505 148.495 7.64892 148.495 4.92752Z" fill="#3C1DFE"/>
<path d="M178.06 4.92752C178.06 2.20613 180.266 0 182.987 0C185.709 0 187.915 2.20613 187.915 4.92752C187.915 7.64892 185.709 9.85505 182.987 9.85505C180.266 9.85505 178.06 7.64892 178.06 4.92752Z" fill="#3C1DFE"/>
<path d="M207.625 4.92752C207.625 2.20613 209.831 0 212.552 0C215.274 0 217.48 2.20613 217.48 4.92752C217.48 7.64892 215.274 9.85505 212.552 9.85505C209.831 9.85505 207.625 7.64892 207.625 4.92752Z" fill="#3C1DFE"/>
<path d="M0.668945 34.4927C0.668945 31.7713 2.87507 29.5651 5.59647 29.5651C8.31786 29.5651 10.524 31.7713 10.524 34.4927C10.524 37.2141 8.31786 39.4202 5.59647 39.4202C2.87507 39.4202 0.668945 37.2141 0.668945 34.4927Z" fill="#3C1DFE"/>
<path d="M30.2341 34.4927C30.2341 31.7713 32.4402 29.5651 35.1616 29.5651C37.883 29.5651 40.0891 31.7713 40.0891 34.4927C40.0891 37.2141 37.883 39.4202 35.1616 39.4202C32.4402 39.4202 30.2341 37.2141 30.2341 34.4927Z" fill="#3C1DFE"/>
<path d="M59.7992 34.4927C59.7992 31.7713 62.0054 29.5651 64.7268 29.5651C67.4482 29.5651 69.6543 31.7713 69.6543 34.4927C69.6543 37.2141 67.4482 39.4202 64.7268 39.4202C62.0054 39.4202 59.7992 37.2141 59.7992 34.4927Z" fill="#3C1DFE"/>
<path d="M89.3644 34.4927C89.3644 31.7713 91.5705 29.5651 94.2919 29.5651C97.0133 29.5651 99.2194 31.7713 99.2194 34.4927C99.2194 37.2141 97.0133 39.4202 94.2919 39.4202C91.5705 39.4202 89.3644 37.2141 89.3644 34.4927Z" fill="#3C1DFE"/>
<path d="M118.93 34.4927C118.93 31.7713 121.136 29.5651 123.857 29.5651C126.578 29.5651 128.785 31.7713 128.785 34.4927C128.785 37.2141 126.578 39.4202 123.857 39.4202C121.136 39.4202 118.93 37.2141 118.93 34.4927Z" fill="#3C1DFE"/>
<path d="M148.495 34.4927C148.495 31.7713 150.701 29.5651 153.422 29.5651C156.144 29.5651 158.35 31.7713 158.35 34.4927C158.35 37.2141 156.144 39.4202 153.422 39.4202C150.701 39.4202 148.495 37.2141 148.495 34.4927Z" fill="#3C1DFE"/>
<path d="M178.06 34.4927C178.06 31.7713 180.266 29.5651 182.987 29.5651C185.709 29.5651 187.915 31.7713 187.915 34.4927C187.915 37.2141 185.709 39.4202 182.987 39.4202C180.266 39.4202 178.06 37.2141 178.06 34.4927Z" fill="#3C1DFE"/>
<path d="M207.625 34.4927C207.625 31.7713 209.831 29.5651 212.552 29.5651C215.274 29.5651 217.48 31.7713 217.48 34.4927C217.48 37.2141 215.274 39.4202 212.552 39.4202C209.831 39.4202 207.625 37.2141 207.625 34.4927Z" fill="#3C1DFE"/>
<path d="M0.668945 64.0578C0.668945 61.3364 2.87507 59.1303 5.59647 59.1303C8.31786 59.1303 10.524 61.3364 10.524 64.0578C10.524 66.7792 8.31786 68.9853 5.59647 68.9853C2.87507 68.9853 0.668945 66.7792 0.668945 64.0578Z" fill="#3C1DFE"/>
<path d="M30.2341 64.0578C30.2341 61.3364 32.4402 59.1303 35.1616 59.1303C37.883 59.1303 40.0891 61.3364 40.0891 64.0578C40.0891 66.7792 37.883 68.9853 35.1616 68.9853C32.4402 68.9853 30.2341 66.7792 30.2341 64.0578Z" fill="#3C1DFE"/>
<path d="M59.7992 64.0578C59.7992 61.3364 62.0054 59.1303 64.7268 59.1303C67.4482 59.1303 69.6543 61.3364 69.6543 64.0578C69.6543 66.7792 67.4482 68.9853 64.7268 68.9853C62.0054 68.9853 59.7992 66.7792 59.7992 64.0578Z" fill="#3C1DFE"/>
<path d="M89.3644 64.0578C89.3644 61.3364 91.5705 59.1303 94.2919 59.1303C97.0133 59.1303 99.2194 61.3364 99.2194 64.0578C99.2194 66.7792 97.0133 68.9853 94.2919 68.9853C91.5705 68.9853 89.3644 66.7792 89.3644 64.0578Z" fill="#3C1DFE"/>
<path d="M118.93 64.0578C118.93 61.3364 121.136 59.1303 123.857 59.1303C126.578 59.1303 128.785 61.3364 128.785 64.0578C128.785 66.7792 126.578 68.9853 123.857 68.9853C121.136 68.9853 118.93 66.7792 118.93 64.0578Z" fill="#3C1DFE"/>
<path d="M148.495 64.0578C148.495 61.3364 150.701 59.1303 153.422 59.1303C156.144 59.1303 158.35 61.3364 158.35 64.0578C158.35 66.7792 156.144 68.9853 153.422 68.9853C150.701 68.9853 148.495 66.7792 148.495 64.0578Z" fill="#3C1DFE"/>
<path d="M178.06 64.0578C178.06 61.3364 180.266 59.1303 182.987 59.1303C185.709 59.1303 187.915 61.3364 187.915 64.0578C187.915 66.7792 185.709 68.9853 182.987 68.9853C180.266 68.9853 178.06 66.7792 178.06 64.0578Z" fill="#3C1DFE"/>
<path d="M207.625 64.0578C207.625 61.3364 209.831 59.1303 212.552 59.1303C215.274 59.1303 217.48 61.3364 217.48 64.0578C217.48 66.7792 215.274 68.9853 212.552 68.9853C209.831 68.9853 207.625 66.7792 207.625 64.0578Z" fill="#3C1DFE"/>
<path d="M0.668945 93.6229C0.668945 90.9016 2.87507 88.6954 5.59647 88.6954C8.31786 88.6954 10.524 90.9016 10.524 93.6229C10.524 96.3443 8.31786 98.5505 5.59647 98.5505C2.87507 98.5505 0.668945 96.3443 0.668945 93.6229Z" fill="#3C1DFE"/>
<path d="M30.2341 93.6229C30.2341 90.9016 32.4402 88.6954 35.1616 88.6954C37.883 88.6954 40.0891 90.9016 40.0891 93.6229C40.0891 96.3443 37.883 98.5505 35.1616 98.5505C32.4402 98.5505 30.2341 96.3443 30.2341 93.6229Z" fill="#3C1DFE"/>
<path d="M59.7992 93.6229C59.7992 90.9016 62.0054 88.6954 64.7268 88.6954C67.4482 88.6954 69.6543 90.9016 69.6543 93.6229C69.6543 96.3443 67.4482 98.5505 64.7268 98.5505C62.0054 98.5505 59.7992 96.3443 59.7992 93.6229Z" fill="#3C1DFE"/>
<path d="M89.3644 93.6229C89.3644 90.9016 91.5705 88.6954 94.2919 88.6954C97.0133 88.6954 99.2194 90.9016 99.2194 93.6229C99.2194 96.3443 97.0133 98.5505 94.2919 98.5505C91.5705 98.5505 89.3644 96.3443 89.3644 93.6229Z" fill="#3C1DFE"/>
<path d="M118.93 93.6229C118.93 90.9016 121.136 88.6954 123.857 88.6954C126.578 88.6954 128.785 90.9016 128.785 93.6229C128.785 96.3443 126.578 98.5505 123.857 98.5505C121.136 98.5505 118.93 96.3443 118.93 93.6229Z" fill="#3C1DFE"/>
<path d="M148.495 93.6229C148.495 90.9016 150.701 88.6954 153.422 88.6954C156.144 88.6954 158.35 90.9016 158.35 93.6229C158.35 96.3443 156.144 98.5505 153.422 98.5505C150.701 98.5505 148.495 96.3443 148.495 93.6229Z" fill="#3C1DFE"/>
<path d="M178.06 93.6229C178.06 90.9016 180.266 88.6954 182.987 88.6954C185.709 88.6954 187.915 90.9016 187.915 93.6229C187.915 96.3443 185.709 98.5505 182.987 98.5505C180.266 98.5505 178.06 96.3443 178.06 93.6229Z" fill="#3C1DFE"/>
<path d="M207.625 93.6229C207.625 90.9016 209.831 88.6954 212.552 88.6954C215.274 88.6954 217.48 90.9016 217.48 93.6229C217.48 96.3443 215.274 98.5505 212.552 98.5505C209.831 98.5505 207.625 96.3443 207.625 93.6229Z" fill="#3C1DFE"/>
<path d="M0.668945 123.188C0.668945 120.467 2.87507 118.261 5.59647 118.261C8.31786 118.261 10.524 120.467 10.524 123.188C10.524 125.909 8.31786 128.116 5.59647 128.116C2.87507 128.116 0.668945 125.909 0.668945 123.188Z" fill="#3C1DFE"/>
<path d="M30.2341 123.188C30.2341 120.467 32.4402 118.261 35.1616 118.261C37.883 118.261 40.0891 120.467 40.0891 123.188C40.0891 125.909 37.883 128.116 35.1616 128.116C32.4402 128.116 30.2341 125.909 30.2341 123.188Z" fill="#3C1DFE"/>
<path d="M59.7992 123.188C59.7992 120.467 62.0054 118.261 64.7268 118.261C67.4482 118.261 69.6543 120.467 69.6543 123.188C69.6543 125.909 67.4482 128.116 64.7268 128.116C62.0054 128.116 59.7992 125.909 59.7992 123.188Z" fill="#3C1DFE"/>
<path d="M89.3644 123.188C89.3644 120.467 91.5705 118.261 94.2919 118.261C97.0133 118.261 99.2194 120.467 99.2194 123.188C99.2194 125.909 97.0133 128.116 94.2919 128.116C91.5705 128.116 89.3644 125.909 89.3644 123.188Z" fill="#3C1DFE"/>
<path d="M118.93 123.188C118.93 120.467 121.136 118.261 123.857 118.261C126.578 118.261 128.785 120.467 128.785 123.188C128.785 125.909 126.578 128.116 123.857 128.116C121.136 128.116 118.93 125.909 118.93 123.188Z" fill="#3C1DFE"/>
<path d="M148.495 123.188C148.495 120.467 150.701 118.261 153.422 118.261C156.144 118.261 158.35 120.467 158.35 123.188C158.35 125.909 156.144 128.116 153.422 128.116C150.701 128.116 148.495 125.909 148.495 123.188Z" fill="#3C1DFE"/>
<path d="M178.06 123.188C178.06 120.467 180.266 118.261 182.987 118.261C185.709 118.261 187.915 120.467 187.915 123.188C187.915 125.909 185.709 128.116 182.987 128.116C180.266 128.116 178.06 125.909 178.06 123.188Z" fill="#3C1DFE"/>
<path d="M207.625 123.188C207.625 120.467 209.831 118.261 212.552 118.261C215.274 118.261 217.48 120.467 217.48 123.188C217.48 125.909 215.274 128.116 212.552 128.116C209.831 128.116 207.625 125.909 207.625 123.188Z" fill="#3C1DFE"/>
<path d="M0.668945 152.753C0.668945 150.032 2.87507 147.826 5.59647 147.826C8.31786 147.826 10.524 150.032 10.524 152.753C10.524 155.475 8.31786 157.681 5.59647 157.681C2.87507 157.681 0.668945 155.475 0.668945 152.753Z" fill="#3C1DFE"/>
<path d="M30.2341 152.753C30.2341 150.032 32.4402 147.826 35.1616 147.826C37.883 147.826 40.0891 150.032 40.0891 152.753C40.0891 155.475 37.883 157.681 35.1616 157.681C32.4402 157.681 30.2341 155.475 30.2341 152.753Z" fill="#3C1DFE"/>
<path d="M59.7992 152.753C59.7992 150.032 62.0054 147.826 64.7268 147.826C67.4482 147.826 69.6543 150.032 69.6543 152.753C69.6543 155.475 67.4482 157.681 64.7268 157.681C62.0054 157.681 59.7992 155.475 59.7992 152.753Z" fill="#3C1DFE"/>
<path d="M89.3644 152.753C89.3644 150.032 91.5705 147.826 94.2919 147.826C97.0133 147.826 99.2194 150.032 99.2194 152.753C99.2194 155.475 97.0133 157.681 94.2919 157.681C91.5705 157.681 89.3644 155.475 89.3644 152.753Z" fill="#3C1DFE"/>
<path d="M118.93 152.753C118.93 150.032 121.136 147.826 123.857 147.826C126.578 147.826 128.785 150.032 128.785 152.753C128.785 155.475 126.578 157.681 123.857 157.681C121.136 157.681 118.93 155.475 118.93 152.753Z" fill="#3C1DFE"/>
<path d="M148.495 152.753C148.495 150.032 150.701 147.826 153.422 147.826C156.144 147.826 158.35 150.032 158.35 152.753C158.35 155.475 156.144 157.681 153.422 157.681C150.701 157.681 148.495 155.475 148.495 152.753Z" fill="#3C1DFE"/>
<path d="M178.06 152.753C178.06 150.032 180.266 147.826 182.987 147.826C185.709 147.826 187.915 150.032 187.915 152.753C187.915 155.475 185.709 157.681 182.987 157.681C180.266 157.681 178.06 155.475 178.06 152.753Z" fill="#3C1DFE"/>
<path d="M207.625 152.753C207.625 150.032 209.831 147.826 212.552 147.826C215.274 147.826 217.48 150.032 217.48 152.753C217.48 155.475 215.274 157.681 212.552 157.681C209.831 157.681 207.625 155.475 207.625 152.753Z" fill="#3C1DFE"/>
<path d="M0.668945 182.318C0.668945 179.597 2.87507 177.391 5.59647 177.391C8.31786 177.391 10.524 179.597 10.524 182.318C10.524 185.04 8.31786 187.246 5.59647 187.246C2.87507 187.246 0.668945 185.04 0.668945 182.318Z" fill="#3C1DFE"/>
<path d="M30.2341 182.318C30.2341 179.597 32.4402 177.391 35.1616 177.391C37.883 177.391 40.0891 179.597 40.0891 182.318C40.0891 185.04 37.883 187.246 35.1616 187.246C32.4402 187.246 30.2341 185.04 30.2341 182.318Z" fill="#3C1DFE"/>
<path d="M59.7992 182.318C59.7992 179.597 62.0054 177.391 64.7268 177.391C67.4482 177.391 69.6543 179.597 69.6543 182.318C69.6543 185.04 67.4482 187.246 64.7268 187.246C62.0054 187.246 59.7992 185.04 59.7992 182.318Z" fill="#3C1DFE"/>
<path d="M89.3644 182.318C89.3644 179.597 91.5705 177.391 94.2919 177.391C97.0133 177.391 99.2194 179.597 99.2194 182.318C99.2194 185.04 97.0133 187.246 94.2919 187.246C91.5705 187.246 89.3644 185.04 89.3644 182.318Z" fill="#3C1DFE"/>
<path d="M118.93 182.318C118.93 179.597 121.136 177.391 123.857 177.391C126.578 177.391 128.785 179.597 128.785 182.318C128.785 185.04 126.578 187.246 123.857 187.246C121.136 187.246 118.93 185.04 118.93 182.318Z" fill="#3C1DFE"/>
<path d="M148.495 182.318C148.495 179.597 150.701 177.391 153.422 177.391C156.144 177.391 158.35 179.597 158.35 182.318C158.35 185.04 156.144 187.246 153.422 187.246C150.701 187.246 148.495 185.04 148.495 182.318Z" fill="#3C1DFE"/>
<path d="M178.06 182.318C178.06 179.597 180.266 177.391 182.987 177.391C185.709 177.391 187.915 179.597 187.915 182.318C187.915 185.04 185.709 187.246 182.987 187.246C180.266 187.246 178.06 185.04 178.06 182.318Z" fill="#3C1DFE"/>
<path d="M207.625 182.318C207.625 179.597 209.831 177.391 212.552 177.391C215.274 177.391 217.48 179.597 217.48 182.318C217.48 185.04 215.274 187.246 212.552 187.246C209.831 187.246 207.625 185.04 207.625 182.318Z" fill="#3C1DFE"/>
<path d="M0.668945 211.884C0.668945 209.162 2.87507 206.956 5.59647 206.956C8.31786 206.956 10.524 209.162 10.524 211.884C10.524 214.605 8.31786 216.811 5.59647 216.811C2.87507 216.811 0.668945 214.605 0.668945 211.884Z" fill="#3C1DFE"/>
<path d="M30.2341 211.884C30.2341 209.162 32.4402 206.956 35.1616 206.956C37.883 206.956 40.0891 209.162 40.0891 211.884C40.0891 214.605 37.883 216.811 35.1616 216.811C32.4402 216.811 30.2341 214.605 30.2341 211.884Z" fill="#3C1DFE"/>
<path d="M59.7992 211.884C59.7992 209.162 62.0054 206.956 64.7268 206.956C67.4482 206.956 69.6543 209.162 69.6543 211.884C69.6543 214.605 67.4482 216.811 64.7268 216.811C62.0054 216.811 59.7992 214.605 59.7992 211.884Z" fill="#3C1DFE"/>
<path d="M89.3644 211.884C89.3644 209.162 91.5705 206.956 94.2919 206.956C97.0133 206.956 99.2194 209.162 99.2194 211.884C99.2194 214.605 97.0133 216.811 94.2919 216.811C91.5705 216.811 89.3644 214.605 89.3644 211.884Z" fill="#3C1DFE"/>
<path d="M118.93 211.884C118.93 209.162 121.136 206.956 123.857 206.956C126.578 206.956 128.785 209.162 128.785 211.884C128.785 214.605 126.578 216.811 123.857 216.811C121.136 216.811 118.93 214.605 118.93 211.884Z" fill="#3C1DFE"/>
<path d="M148.495 211.884C148.495 209.162 150.701 206.956 153.422 206.956C156.144 206.956 158.35 209.162 158.35 211.884C158.35 214.605 156.144 216.811 153.422 216.811C150.701 216.811 148.495 214.605 148.495 211.884Z" fill="#3C1DFE"/>
<path d="M178.06 211.884C178.06 209.162 180.266 206.956 182.987 206.956C185.709 206.956 187.915 209.162 187.915 211.884C187.915 214.605 185.709 216.811 182.987 216.811C180.266 216.811 178.06 214.605 178.06 211.884Z" fill="#3C1DFE"/>
<path d="M207.625 211.884C207.625 209.162 209.831 206.956 212.552 206.956C215.274 206.956 217.48 209.162 217.48 211.884C217.48 214.605 215.274 216.811 212.552 216.811C209.831 216.811 207.625 214.605 207.625 211.884Z" fill="#3C1DFE"/>
</svg>
