<svg width="957" height="645" viewBox="0 0 957 645" fill="none" xmlns="http://www.w3.org/2000/svg">
<path d="M956.127 0H0.450195V625.355H956.127V0Z" fill="url(#paint0_linear_479:24914)"/>
<path d="M873.256 246.677C873.256 464.872 696.374 641.754 478.179 641.754C259.984 641.754 83.1016 464.872 83.1016 246.677V-148.4H478.179C696.374 -148.4 873.256 28.4816 873.256 246.677Z" stroke="white" stroke-width="6.22168"/>
<path d="M811.039 246.677C811.039 430.51 662.012 579.537 478.178 579.537C294.345 579.537 145.318 430.51 145.318 246.677V-86.1835H478.178C662.012 -86.1835 811.039 62.843 811.039 246.677Z" stroke="white" stroke-width="6.22168"/>
<path d="M748.822 246.677C748.822 396.149 627.65 517.32 478.178 517.32C328.706 517.32 207.535 396.149 207.535 246.677V-23.9663H478.178C627.65 -23.9663 748.822 97.2047 748.822 246.677Z" stroke="white" stroke-width="6.22168"/>
<path d="M689.716 246.676C689.716 363.505 595.008 458.214 478.179 458.214C361.35 458.214 266.641 363.505 266.641 246.676V35.1389H478.179C595.008 35.1389 689.716 129.847 689.716 246.676Z" stroke="white" stroke-width="6.22168"/>
<path d="M629.054 246.677C629.054 330.003 561.505 397.552 478.178 397.552C394.852 397.552 327.303 330.003 327.303 246.677V95.8007H478.178C561.505 95.8007 629.054 163.35 629.054 246.677Z" stroke="white" stroke-width="6.22168"/>
<path d="M567.615 246.677C567.615 296.071 527.573 336.113 478.178 336.113C428.784 336.113 388.742 296.071 388.742 246.677V157.24H478.178C527.573 157.24 567.615 197.282 567.615 246.677Z" stroke="white" stroke-width="6.22168"/>
<defs>
<linearGradient id="paint0_linear_479:24914" x1="0.450195" y1="312.675" x2="956.127" y2="312.675" gradientUnits="userSpaceOnUse">
<stop offset="0.13" stop-color="#2BFAE1"/>
<stop offset="0.34" stop-color="#2EFAE0"/>
<stop offset="0.48" stop-color="#37F9DE"/>
<stop offset="0.6" stop-color="#46F9DA"/>
<stop offset="0.71" stop-color="#5BF7D4"/>
<stop offset="0.8" stop-color="#76F6CD"/>
<stop offset="0.85" stop-color="#87F5C9"/>
</linearGradient>
</defs>
</svg>
