<svg width="241" height="27" viewBox="0 0 241 27" fill="none" xmlns="http://www.w3.org/2000/svg">
<path d="M2.99805 2.73242L13.7112 13.4456C19.628 19.3623 29.2209 19.3623 35.1376 13.4456C41.0543 7.52887 50.6472 7.52887 56.5639 13.4456C62.4807 19.3623 72.0736 19.3623 77.9903 13.4456C83.907 7.52887 93.4999 7.52887 99.4167 13.4456C105.333 19.3623 114.926 19.3623 120.843 13.4456C126.76 7.52887 136.353 7.52887 142.269 13.4456C148.186 19.3623 157.779 19.3623 163.696 13.4456C169.612 7.52887 179.205 7.52887 185.122 13.4456C191.039 19.3623 200.632 19.3623 206.548 13.4456C212.465 7.52887 222.058 7.52887 227.975 13.4456L238.688 24.1588" stroke="#3C1DFE" stroke-width="6"/>
</svg>
