<svg width="68" height="162" viewBox="0 0 68 162" fill="none" xmlns="http://www.w3.org/2000/svg">
<rect width="67.6861" height="162" fill="#2BFAE1"/>
<path fill-rule="evenodd" clip-rule="evenodd" d="M67.6861 149.042C62.0864 153.782 56.1385 158.116 49.8867 162H44.7058C52.8936 157.248 60.5862 151.723 67.6861 145.525V149.042ZM0 157.457C26.8318 151.215 50.3975 136.35 67.6861 115.907V111.715C50.7226 132.843 27.0758 148.271 0 154.717V157.457ZM0 133.061C31.0911 124.045 56.1536 100.648 67.6861 70.4613V62.1557C57.9906 94.8512 32.4073 120.605 0 130.28V133.061ZM0 109.434C30.5921 97.7931 52.3453 67.9568 52.3453 33.0028C52.3453 21.2588 49.8896 10.0925 45.4682 0H42.5476C47.1253 10.0415 49.6786 21.2201 49.6786 33.0028C49.6786 66.4712 29.0778 95.0654 0 106.572V109.434ZM0 84.0796C17.6401 74.0196 29.5439 54.91 29.5439 33.0029C29.5439 20.7658 25.8296 9.40162 19.4761 0H16.2223C22.9214 9.25043 26.8772 20.6581 26.8772 33.0029C26.8772 53.3781 16.1008 71.2006 0 80.9838V84.0796ZM0 53.4345C4.0624 47.6671 6.45039 40.6149 6.45039 33.0029C6.45039 25.3909 4.0624 18.3387 0 12.5713V17.6634C2.4146 22.2347 3.78372 27.4562 3.78372 33.0029C3.78372 38.5496 2.4146 43.7711 0 48.3424V53.4345ZM66.4603 0H67.6861V3.85032C67.3022 2.55581 66.8934 1.27218 66.4603 0Z" fill="white"/>
<rect x="1.33333" y="1.33333" width="65.0194" height="159.333" stroke="#3C1DFE" stroke-width="2.66667"/>
</svg>
