<svg width="247" height="247" viewBox="0 0 247 247" fill="none" xmlns="http://www.w3.org/2000/svg">
<g opacity="0.5">
<rect width="11.1827" height="11.1827" rx="5.59137" fill="#3C1DFE"/>
<rect x="33.5483" width="11.1827" height="11.1827" rx="5.59137" fill="#3C1DFE"/>
<rect x="67.0964" width="11.1827" height="11.1827" rx="5.59137" fill="#3C1DFE"/>
<rect x="100.645" width="11.1827" height="11.1827" rx="5.59137" fill="#3C1DFE"/>
<rect x="134.193" width="11.1827" height="11.1827" rx="5.59137" fill="#3C1DFE"/>
<rect x="167.741" width="11.1827" height="11.1827" rx="5.59137" fill="#3C1DFE"/>
<rect x="201.289" width="11.1827" height="11.1827" rx="5.59137" fill="#3C1DFE"/>
<rect x="234.838" width="11.1827" height="11.1827" rx="5.59137" fill="#3C1DFE"/>
<rect y="33.5488" width="11.1827" height="11.1827" rx="5.59137" fill="#3C1DFE"/>
<rect x="33.5483" y="33.5488" width="11.1827" height="11.1827" rx="5.59137" fill="#3C1DFE"/>
<rect x="67.0964" y="33.5488" width="11.1827" height="11.1827" rx="5.59137" fill="#3C1DFE"/>
<rect x="100.645" y="33.5488" width="11.1827" height="11.1827" rx="5.59137" fill="#3C1DFE"/>
<rect x="134.193" y="33.5488" width="11.1827" height="11.1827" rx="5.59137" fill="#3C1DFE"/>
<rect x="167.741" y="33.5488" width="11.1827" height="11.1827" rx="5.59137" fill="#3C1DFE"/>
<rect x="201.289" y="33.5488" width="11.1827" height="11.1827" rx="5.59137" fill="#3C1DFE"/>
<rect x="234.838" y="33.5488" width="11.1827" height="11.1827" rx="5.59137" fill="#3C1DFE"/>
<rect y="67.0957" width="11.1827" height="11.1827" rx="5.59137" fill="#3C1DFE"/>
<rect x="33.5483" y="67.0957" width="11.1827" height="11.1827" rx="5.59137" fill="#3C1DFE"/>
<rect x="67.0964" y="67.0957" width="11.1827" height="11.1827" rx="5.59137" fill="#3C1DFE"/>
<rect x="100.645" y="67.0957" width="11.1827" height="11.1827" rx="5.59137" fill="#3C1DFE"/>
<rect x="134.193" y="67.0957" width="11.1827" height="11.1827" rx="5.59137" fill="#3C1DFE"/>
<rect x="167.741" y="67.0957" width="11.1827" height="11.1827" rx="5.59137" fill="#3C1DFE"/>
<rect x="201.289" y="67.0957" width="11.1827" height="11.1827" rx="5.59137" fill="#3C1DFE"/>
<rect x="234.838" y="67.0957" width="11.1827" height="11.1827" rx="5.59137" fill="#3C1DFE"/>
<rect y="100.645" width="11.1827" height="11.1827" rx="5.59137" fill="#3C1DFE"/>
<rect x="33.5483" y="100.645" width="11.1827" height="11.1827" rx="5.59137" fill="#3C1DFE"/>
<rect x="67.0964" y="100.645" width="11.1827" height="11.1827" rx="5.59137" fill="#3C1DFE"/>
<rect x="100.645" y="100.645" width="11.1827" height="11.1827" rx="5.59137" fill="#3C1DFE"/>
<rect x="134.193" y="100.645" width="11.1827" height="11.1827" rx="5.59137" fill="#3C1DFE"/>
<rect x="167.741" y="100.645" width="11.1827" height="11.1827" rx="5.59137" fill="#3C1DFE"/>
<rect x="201.289" y="100.645" width="11.1827" height="11.1827" rx="5.59137" fill="#3C1DFE"/>
<rect x="234.838" y="100.645" width="11.1827" height="11.1827" rx="5.59137" fill="#3C1DFE"/>
<rect y="134.193" width="11.1827" height="11.1827" rx="5.59137" fill="#3C1DFE"/>
<rect x="33.5483" y="134.193" width="11.1827" height="11.1827" rx="5.59137" fill="#3C1DFE"/>
<rect x="67.0964" y="134.193" width="11.1827" height="11.1827" rx="5.59137" fill="#3C1DFE"/>
<rect x="100.645" y="134.193" width="11.1827" height="11.1827" rx="5.59137" fill="#3C1DFE"/>
<rect x="134.193" y="134.193" width="11.1827" height="11.1827" rx="5.59137" fill="#3C1DFE"/>
<rect x="167.741" y="134.193" width="11.1827" height="11.1827" rx="5.59137" fill="#3C1DFE"/>
<rect x="201.289" y="134.193" width="11.1827" height="11.1827" rx="5.59137" fill="#3C1DFE"/>
<rect x="234.838" y="134.193" width="11.1827" height="11.1827" rx="5.59137" fill="#3C1DFE"/>
<rect y="167.74" width="11.1827" height="11.1827" rx="5.59137" fill="#3C1DFE"/>
<rect x="33.5483" y="167.74" width="11.1827" height="11.1827" rx="5.59137" fill="#3C1DFE"/>
<rect x="67.0964" y="167.74" width="11.1827" height="11.1827" rx="5.59137" fill="#3C1DFE"/>
<rect x="100.645" y="167.74" width="11.1827" height="11.1827" rx="5.59137" fill="#3C1DFE"/>
<rect x="134.193" y="167.74" width="11.1827" height="11.1827" rx="5.59137" fill="#3C1DFE"/>
<rect x="167.741" y="167.74" width="11.1827" height="11.1827" rx="5.59137" fill="#3C1DFE"/>
<rect x="201.289" y="167.74" width="11.1827" height="11.1827" rx="5.59137" fill="#3C1DFE"/>
<rect x="234.838" y="167.74" width="11.1827" height="11.1827" rx="5.59137" fill="#3C1DFE"/>
<rect y="201.289" width="11.1827" height="11.1827" rx="5.59137" fill="#3C1DFE"/>
<rect x="33.5483" y="201.289" width="11.1827" height="11.1827" rx="5.59137" fill="#3C1DFE"/>
<rect x="67.0964" y="201.289" width="11.1827" height="11.1827" rx="5.59137" fill="#3C1DFE"/>
<rect x="100.645" y="201.289" width="11.1827" height="11.1827" rx="5.59137" fill="#3C1DFE"/>
<rect x="134.193" y="201.289" width="11.1827" height="11.1827" rx="5.59137" fill="#3C1DFE"/>
<rect x="167.741" y="201.289" width="11.1827" height="11.1827" rx="5.59137" fill="#3C1DFE"/>
<rect x="201.289" y="201.289" width="11.1827" height="11.1827" rx="5.59137" fill="#3C1DFE"/>
<rect x="234.838" y="201.289" width="11.1827" height="11.1827" rx="5.59137" fill="#3C1DFE"/>
<rect y="234.838" width="11.1827" height="11.1827" rx="5.59137" fill="#3C1DFE"/>
<rect x="33.5483" y="234.838" width="11.1827" height="11.1827" rx="5.59137" fill="#3C1DFE"/>
<rect x="67.0964" y="234.838" width="11.1827" height="11.1827" rx="5.59137" fill="#3C1DFE"/>
<rect x="100.645" y="234.838" width="11.1827" height="11.1827" rx="5.59137" fill="#3C1DFE"/>
<rect x="134.193" y="234.838" width="11.1827" height="11.1827" rx="5.59137" fill="#3C1DFE"/>
<rect x="167.741" y="234.838" width="11.1827" height="11.1827" rx="5.59137" fill="#3C1DFE"/>
<rect x="201.289" y="234.838" width="11.1827" height="11.1827" rx="5.59137" fill="#3C1DFE"/>
<rect x="234.838" y="234.838" width="11.1827" height="11.1827" rx="5.59137" fill="#3C1DFE"/>
</g>
</svg>
