<svg width="70" height="70" viewBox="0 0 70 70" fill="none" xmlns="http://www.w3.org/2000/svg">
<path d="M0 1.59091C0 0.712274 0.712274 0 1.59091 0C2.46954 0 3.18182 0.712274 3.18182 1.59091C3.18182 2.46954 2.46954 3.18182 1.59091 3.18182C0.712274 3.18182 0 2.46954 0 1.59091Z" fill="#3C1DFE"/>
<path d="M9.54545 1.59091C9.54545 0.712274 10.2577 0 11.1364 0C12.015 0 12.7273 0.712274 12.7273 1.59091C12.7273 2.46954 12.015 3.18182 11.1364 3.18182C10.2577 3.18182 9.54545 2.46954 9.54545 1.59091Z" fill="#3C1DFE"/>
<path d="M19.0909 1.59091C19.0909 0.712274 19.8032 0 20.6818 0C21.5605 0 22.2727 0.712274 22.2727 1.59091C22.2727 2.46954 21.5605 3.18182 20.6818 3.18182C19.8032 3.18182 19.0909 2.46954 19.0909 1.59091Z" fill="#3C1DFE"/>
<path d="M28.6364 1.59091C28.6364 0.712274 29.3486 0 30.2273 0C31.1059 0 31.8182 0.712274 31.8182 1.59091C31.8182 2.46954 31.1059 3.18182 30.2273 3.18182C29.3486 3.18182 28.6364 2.46954 28.6364 1.59091Z" fill="#3C1DFE"/>
<path d="M38.1818 1.59091C38.1818 0.712274 38.8941 0 39.7727 0C40.6514 0 41.3636 0.712274 41.3636 1.59091C41.3636 2.46954 40.6514 3.18182 39.7727 3.18182C38.8941 3.18182 38.1818 2.46954 38.1818 1.59091Z" fill="#3C1DFE"/>
<path d="M47.7273 1.59091C47.7273 0.712274 48.4395 0 49.3182 0C50.1968 0 50.9091 0.712274 50.9091 1.59091C50.9091 2.46954 50.1968 3.18182 49.3182 3.18182C48.4395 3.18182 47.7273 2.46954 47.7273 1.59091Z" fill="#3C1DFE"/>
<path d="M57.2727 1.59091C57.2727 0.712274 57.985 0 58.8636 0C59.7423 0 60.4545 0.712274 60.4545 1.59091C60.4545 2.46954 59.7423 3.18182 58.8636 3.18182C57.985 3.18182 57.2727 2.46954 57.2727 1.59091Z" fill="#3C1DFE"/>
<path d="M66.8182 1.59091C66.8182 0.712274 67.5305 0 68.4091 0C69.2877 0 70 0.712274 70 1.59091C70 2.46954 69.2877 3.18182 68.4091 3.18182C67.5305 3.18182 66.8182 2.46954 66.8182 1.59091Z" fill="#3C1DFE"/>
<path d="M0 11.1364C0 10.2577 0.712274 9.54545 1.59091 9.54545C2.46954 9.54545 3.18182 10.2577 3.18182 11.1364C3.18182 12.015 2.46954 12.7273 1.59091 12.7273C0.712274 12.7273 0 12.015 0 11.1364Z" fill="#3C1DFE"/>
<path d="M9.54545 11.1364C9.54545 10.2577 10.2577 9.54545 11.1364 9.54545C12.015 9.54545 12.7273 10.2577 12.7273 11.1364C12.7273 12.015 12.015 12.7273 11.1364 12.7273C10.2577 12.7273 9.54545 12.015 9.54545 11.1364Z" fill="#3C1DFE"/>
<path d="M19.0909 11.1364C19.0909 10.2577 19.8032 9.54545 20.6818 9.54545C21.5605 9.54545 22.2727 10.2577 22.2727 11.1364C22.2727 12.015 21.5605 12.7273 20.6818 12.7273C19.8032 12.7273 19.0909 12.015 19.0909 11.1364Z" fill="#3C1DFE"/>
<path d="M28.6364 11.1364C28.6364 10.2577 29.3486 9.54545 30.2273 9.54545C31.1059 9.54545 31.8182 10.2577 31.8182 11.1364C31.8182 12.015 31.1059 12.7273 30.2273 12.7273C29.3486 12.7273 28.6364 12.015 28.6364 11.1364Z" fill="#3C1DFE"/>
<path d="M38.1818 11.1364C38.1818 10.2577 38.8941 9.54545 39.7727 9.54545C40.6514 9.54545 41.3636 10.2577 41.3636 11.1364C41.3636 12.015 40.6514 12.7273 39.7727 12.7273C38.8941 12.7273 38.1818 12.015 38.1818 11.1364Z" fill="#3C1DFE"/>
<path d="M47.7273 11.1364C47.7273 10.2577 48.4395 9.54545 49.3182 9.54545C50.1968 9.54545 50.9091 10.2577 50.9091 11.1364C50.9091 12.015 50.1968 12.7273 49.3182 12.7273C48.4395 12.7273 47.7273 12.015 47.7273 11.1364Z" fill="#3C1DFE"/>
<path d="M57.2727 11.1364C57.2727 10.2577 57.985 9.54545 58.8636 9.54545C59.7423 9.54545 60.4545 10.2577 60.4545 11.1364C60.4545 12.015 59.7423 12.7273 58.8636 12.7273C57.985 12.7273 57.2727 12.015 57.2727 11.1364Z" fill="#3C1DFE"/>
<path d="M66.8182 11.1364C66.8182 10.2577 67.5305 9.54545 68.4091 9.54545C69.2877 9.54545 70 10.2577 70 11.1364C70 12.015 69.2877 12.7273 68.4091 12.7273C67.5305 12.7273 66.8182 12.015 66.8182 11.1364Z" fill="#3C1DFE"/>
<path d="M0 20.6818C0 19.8032 0.712274 19.0909 1.59091 19.0909C2.46954 19.0909 3.18182 19.8032 3.18182 20.6818C3.18182 21.5605 2.46954 22.2727 1.59091 22.2727C0.712274 22.2727 0 21.5605 0 20.6818Z" fill="#3C1DFE"/>
<path d="M9.54545 20.6818C9.54545 19.8032 10.2577 19.0909 11.1364 19.0909C12.015 19.0909 12.7273 19.8032 12.7273 20.6818C12.7273 21.5605 12.015 22.2727 11.1364 22.2727C10.2577 22.2727 9.54545 21.5605 9.54545 20.6818Z" fill="#3C1DFE"/>
<path d="M19.0909 20.6818C19.0909 19.8032 19.8032 19.0909 20.6818 19.0909C21.5605 19.0909 22.2727 19.8032 22.2727 20.6818C22.2727 21.5605 21.5605 22.2727 20.6818 22.2727C19.8032 22.2727 19.0909 21.5605 19.0909 20.6818Z" fill="#3C1DFE"/>
<path d="M28.6364 20.6818C28.6364 19.8032 29.3486 19.0909 30.2273 19.0909C31.1059 19.0909 31.8182 19.8032 31.8182 20.6818C31.8182 21.5605 31.1059 22.2727 30.2273 22.2727C29.3486 22.2727 28.6364 21.5605 28.6364 20.6818Z" fill="#3C1DFE"/>
<path d="M38.1818 20.6818C38.1818 19.8032 38.8941 19.0909 39.7727 19.0909C40.6514 19.0909 41.3636 19.8032 41.3636 20.6818C41.3636 21.5605 40.6514 22.2727 39.7727 22.2727C38.8941 22.2727 38.1818 21.5605 38.1818 20.6818Z" fill="#3C1DFE"/>
<path d="M47.7273 20.6818C47.7273 19.8032 48.4395 19.0909 49.3182 19.0909C50.1968 19.0909 50.9091 19.8032 50.9091 20.6818C50.9091 21.5605 50.1968 22.2727 49.3182 22.2727C48.4395 22.2727 47.7273 21.5605 47.7273 20.6818Z" fill="#3C1DFE"/>
<path d="M57.2727 20.6818C57.2727 19.8032 57.985 19.0909 58.8636 19.0909C59.7423 19.0909 60.4545 19.8032 60.4545 20.6818C60.4545 21.5605 59.7423 22.2727 58.8636 22.2727C57.985 22.2727 57.2727 21.5605 57.2727 20.6818Z" fill="#3C1DFE"/>
<path d="M66.8182 20.6818C66.8182 19.8032 67.5305 19.0909 68.4091 19.0909C69.2877 19.0909 70 19.8032 70 20.6818C70 21.5605 69.2877 22.2727 68.4091 22.2727C67.5305 22.2727 66.8182 21.5605 66.8182 20.6818Z" fill="#3C1DFE"/>
<path d="M0 30.2273C0 29.3486 0.712274 28.6364 1.59091 28.6364C2.46954 28.6364 3.18182 29.3486 3.18182 30.2273C3.18182 31.1059 2.46954 31.8182 1.59091 31.8182C0.712274 31.8182 0 31.1059 0 30.2273Z" fill="#3C1DFE"/>
<path d="M9.54545 30.2273C9.54545 29.3486 10.2577 28.6364 11.1364 28.6364C12.015 28.6364 12.7273 29.3486 12.7273 30.2273C12.7273 31.1059 12.015 31.8182 11.1364 31.8182C10.2577 31.8182 9.54545 31.1059 9.54545 30.2273Z" fill="#3C1DFE"/>
<path d="M19.0909 30.2273C19.0909 29.3486 19.8032 28.6364 20.6818 28.6364C21.5605 28.6364 22.2727 29.3486 22.2727 30.2273C22.2727 31.1059 21.5605 31.8182 20.6818 31.8182C19.8032 31.8182 19.0909 31.1059 19.0909 30.2273Z" fill="#3C1DFE"/>
<path d="M28.6364 30.2273C28.6364 29.3486 29.3486 28.6364 30.2273 28.6364C31.1059 28.6364 31.8182 29.3486 31.8182 30.2273C31.8182 31.1059 31.1059 31.8182 30.2273 31.8182C29.3486 31.8182 28.6364 31.1059 28.6364 30.2273Z" fill="#3C1DFE"/>
<path d="M38.1818 30.2273C38.1818 29.3486 38.8941 28.6364 39.7727 28.6364C40.6514 28.6364 41.3636 29.3486 41.3636 30.2273C41.3636 31.1059 40.6514 31.8182 39.7727 31.8182C38.8941 31.8182 38.1818 31.1059 38.1818 30.2273Z" fill="#3C1DFE"/>
<path d="M47.7273 30.2273C47.7273 29.3486 48.4395 28.6364 49.3182 28.6364C50.1968 28.6364 50.9091 29.3486 50.9091 30.2273C50.9091 31.1059 50.1968 31.8182 49.3182 31.8182C48.4395 31.8182 47.7273 31.1059 47.7273 30.2273Z" fill="#3C1DFE"/>
<path d="M57.2727 30.2273C57.2727 29.3486 57.985 28.6364 58.8636 28.6364C59.7423 28.6364 60.4545 29.3486 60.4545 30.2273C60.4545 31.1059 59.7423 31.8182 58.8636 31.8182C57.985 31.8182 57.2727 31.1059 57.2727 30.2273Z" fill="#3C1DFE"/>
<path d="M66.8182 30.2273C66.8182 29.3486 67.5305 28.6364 68.4091 28.6364C69.2877 28.6364 70 29.3486 70 30.2273C70 31.1059 69.2877 31.8182 68.4091 31.8182C67.5305 31.8182 66.8182 31.1059 66.8182 30.2273Z" fill="#3C1DFE"/>
<path d="M0 39.7727C0 38.8941 0.712274 38.1818 1.59091 38.1818C2.46954 38.1818 3.18182 38.8941 3.18182 39.7727C3.18182 40.6514 2.46954 41.3636 1.59091 41.3636C0.712274 41.3636 0 40.6514 0 39.7727Z" fill="#3C1DFE"/>
<path d="M9.54545 39.7727C9.54545 38.8941 10.2577 38.1818 11.1364 38.1818C12.015 38.1818 12.7273 38.8941 12.7273 39.7727C12.7273 40.6514 12.015 41.3636 11.1364 41.3636C10.2577 41.3636 9.54545 40.6514 9.54545 39.7727Z" fill="#3C1DFE"/>
<path d="M19.0909 39.7727C19.0909 38.8941 19.8032 38.1818 20.6818 38.1818C21.5605 38.1818 22.2727 38.8941 22.2727 39.7727C22.2727 40.6514 21.5605 41.3636 20.6818 41.3636C19.8032 41.3636 19.0909 40.6514 19.0909 39.7727Z" fill="#3C1DFE"/>
<path d="M28.6364 39.7727C28.6364 38.8941 29.3486 38.1818 30.2273 38.1818C31.1059 38.1818 31.8182 38.8941 31.8182 39.7727C31.8182 40.6514 31.1059 41.3636 30.2273 41.3636C29.3486 41.3636 28.6364 40.6514 28.6364 39.7727Z" fill="#3C1DFE"/>
<path d="M38.1818 39.7727C38.1818 38.8941 38.8941 38.1818 39.7727 38.1818C40.6514 38.1818 41.3636 38.8941 41.3636 39.7727C41.3636 40.6514 40.6514 41.3636 39.7727 41.3636C38.8941 41.3636 38.1818 40.6514 38.1818 39.7727Z" fill="#3C1DFE"/>
<path d="M47.7273 39.7727C47.7273 38.8941 48.4395 38.1818 49.3182 38.1818C50.1968 38.1818 50.9091 38.8941 50.9091 39.7727C50.9091 40.6514 50.1968 41.3636 49.3182 41.3636C48.4395 41.3636 47.7273 40.6514 47.7273 39.7727Z" fill="#3C1DFE"/>
<path d="M57.2727 39.7727C57.2727 38.8941 57.985 38.1818 58.8636 38.1818C59.7423 38.1818 60.4545 38.8941 60.4545 39.7727C60.4545 40.6514 59.7423 41.3636 58.8636 41.3636C57.985 41.3636 57.2727 40.6514 57.2727 39.7727Z" fill="#3C1DFE"/>
<path d="M66.8182 39.7727C66.8182 38.8941 67.5305 38.1818 68.4091 38.1818C69.2877 38.1818 70 38.8941 70 39.7727C70 40.6514 69.2877 41.3636 68.4091 41.3636C67.5305 41.3636 66.8182 40.6514 66.8182 39.7727Z" fill="#3C1DFE"/>
<path d="M0 49.3182C0 48.4395 0.712274 47.7273 1.59091 47.7273C2.46954 47.7273 3.18182 48.4395 3.18182 49.3182C3.18182 50.1968 2.46954 50.9091 1.59091 50.9091C0.712274 50.9091 0 50.1968 0 49.3182Z" fill="#3C1DFE"/>
<path d="M9.54545 49.3182C9.54545 48.4395 10.2577 47.7273 11.1364 47.7273C12.015 47.7273 12.7273 48.4395 12.7273 49.3182C12.7273 50.1968 12.015 50.9091 11.1364 50.9091C10.2577 50.9091 9.54545 50.1968 9.54545 49.3182Z" fill="#3C1DFE"/>
<path d="M19.0909 49.3182C19.0909 48.4395 19.8032 47.7273 20.6818 47.7273C21.5605 47.7273 22.2727 48.4395 22.2727 49.3182C22.2727 50.1968 21.5605 50.9091 20.6818 50.9091C19.8032 50.9091 19.0909 50.1968 19.0909 49.3182Z" fill="#3C1DFE"/>
<path d="M28.6364 49.3182C28.6364 48.4395 29.3486 47.7273 30.2273 47.7273C31.1059 47.7273 31.8182 48.4395 31.8182 49.3182C31.8182 50.1968 31.1059 50.9091 30.2273 50.9091C29.3486 50.9091 28.6364 50.1968 28.6364 49.3182Z" fill="#3C1DFE"/>
<path d="M38.1818 49.3182C38.1818 48.4395 38.8941 47.7273 39.7727 47.7273C40.6514 47.7273 41.3636 48.4395 41.3636 49.3182C41.3636 50.1968 40.6514 50.9091 39.7727 50.9091C38.8941 50.9091 38.1818 50.1968 38.1818 49.3182Z" fill="#3C1DFE"/>
<path d="M47.7273 49.3182C47.7273 48.4395 48.4395 47.7273 49.3182 47.7273C50.1968 47.7273 50.9091 48.4395 50.9091 49.3182C50.9091 50.1968 50.1968 50.9091 49.3182 50.9091C48.4395 50.9091 47.7273 50.1968 47.7273 49.3182Z" fill="#3C1DFE"/>
<path d="M57.2727 49.3182C57.2727 48.4395 57.985 47.7273 58.8636 47.7273C59.7423 47.7273 60.4545 48.4395 60.4545 49.3182C60.4545 50.1968 59.7423 50.9091 58.8636 50.9091C57.985 50.9091 57.2727 50.1968 57.2727 49.3182Z" fill="#3C1DFE"/>
<path d="M66.8182 49.3182C66.8182 48.4395 67.5305 47.7273 68.4091 47.7273C69.2877 47.7273 70 48.4395 70 49.3182C70 50.1968 69.2877 50.9091 68.4091 50.9091C67.5305 50.9091 66.8182 50.1968 66.8182 49.3182Z" fill="#3C1DFE"/>
<path d="M0 58.8636C0 57.985 0.712274 57.2727 1.59091 57.2727C2.46954 57.2727 3.18182 57.985 3.18182 58.8636C3.18182 59.7423 2.46954 60.4545 1.59091 60.4545C0.712274 60.4545 0 59.7423 0 58.8636Z" fill="#3C1DFE"/>
<path d="M9.54545 58.8636C9.54545 57.985 10.2577 57.2727 11.1364 57.2727C12.015 57.2727 12.7273 57.985 12.7273 58.8636C12.7273 59.7423 12.015 60.4545 11.1364 60.4545C10.2577 60.4545 9.54545 59.7423 9.54545 58.8636Z" fill="#3C1DFE"/>
<path d="M19.0909 58.8636C19.0909 57.985 19.8032 57.2727 20.6818 57.2727C21.5605 57.2727 22.2727 57.985 22.2727 58.8636C22.2727 59.7423 21.5605 60.4545 20.6818 60.4545C19.8032 60.4545 19.0909 59.7423 19.0909 58.8636Z" fill="#3C1DFE"/>
<path d="M28.6364 58.8636C28.6364 57.985 29.3486 57.2727 30.2273 57.2727C31.1059 57.2727 31.8182 57.985 31.8182 58.8636C31.8182 59.7423 31.1059 60.4545 30.2273 60.4545C29.3486 60.4545 28.6364 59.7423 28.6364 58.8636Z" fill="#3C1DFE"/>
<path d="M38.1818 58.8636C38.1818 57.985 38.8941 57.2727 39.7727 57.2727C40.6514 57.2727 41.3636 57.985 41.3636 58.8636C41.3636 59.7423 40.6514 60.4545 39.7727 60.4545C38.8941 60.4545 38.1818 59.7423 38.1818 58.8636Z" fill="#3C1DFE"/>
<path d="M47.7273 58.8636C47.7273 57.985 48.4395 57.2727 49.3182 57.2727C50.1968 57.2727 50.9091 57.985 50.9091 58.8636C50.9091 59.7423 50.1968 60.4545 49.3182 60.4545C48.4395 60.4545 47.7273 59.7423 47.7273 58.8636Z" fill="#3C1DFE"/>
<path d="M57.2727 58.8636C57.2727 57.985 57.985 57.2727 58.8636 57.2727C59.7423 57.2727 60.4545 57.985 60.4545 58.8636C60.4545 59.7423 59.7423 60.4545 58.8636 60.4545C57.985 60.4545 57.2727 59.7423 57.2727 58.8636Z" fill="#3C1DFE"/>
<path d="M66.8182 58.8636C66.8182 57.985 67.5305 57.2727 68.4091 57.2727C69.2877 57.2727 70 57.985 70 58.8636C70 59.7423 69.2877 60.4545 68.4091 60.4545C67.5305 60.4545 66.8182 59.7423 66.8182 58.8636Z" fill="#3C1DFE"/>
<path d="M0 68.4091C0 67.5305 0.712274 66.8182 1.59091 66.8182C2.46954 66.8182 3.18182 67.5305 3.18182 68.4091C3.18182 69.2877 2.46954 70 1.59091 70C0.712274 70 0 69.2877 0 68.4091Z" fill="#3C1DFE"/>
<path d="M9.54545 68.4091C9.54545 67.5305 10.2577 66.8182 11.1364 66.8182C12.015 66.8182 12.7273 67.5305 12.7273 68.4091C12.7273 69.2877 12.015 70 11.1364 70C10.2577 70 9.54545 69.2877 9.54545 68.4091Z" fill="#3C1DFE"/>
<path d="M19.0909 68.4091C19.0909 67.5305 19.8032 66.8182 20.6818 66.8182C21.5605 66.8182 22.2727 67.5305 22.2727 68.4091C22.2727 69.2877 21.5605 70 20.6818 70C19.8032 70 19.0909 69.2877 19.0909 68.4091Z" fill="#3C1DFE"/>
<path d="M28.6364 68.4091C28.6364 67.5305 29.3486 66.8182 30.2273 66.8182C31.1059 66.8182 31.8182 67.5305 31.8182 68.4091C31.8182 69.2877 31.1059 70 30.2273 70C29.3486 70 28.6364 69.2877 28.6364 68.4091Z" fill="#3C1DFE"/>
<path d="M38.1818 68.4091C38.1818 67.5305 38.8941 66.8182 39.7727 66.8182C40.6514 66.8182 41.3636 67.5305 41.3636 68.4091C41.3636 69.2877 40.6514 70 39.7727 70C38.8941 70 38.1818 69.2877 38.1818 68.4091Z" fill="#3C1DFE"/>
<path d="M47.7273 68.4091C47.7273 67.5305 48.4395 66.8182 49.3182 66.8182C50.1968 66.8182 50.9091 67.5305 50.9091 68.4091C50.9091 69.2877 50.1968 70 49.3182 70C48.4395 70 47.7273 69.2877 47.7273 68.4091Z" fill="#3C1DFE"/>
<path d="M57.2727 68.4091C57.2727 67.5305 57.985 66.8182 58.8636 66.8182C59.7423 66.8182 60.4545 67.5305 60.4545 68.4091C60.4545 69.2877 59.7423 70 58.8636 70C57.985 70 57.2727 69.2877 57.2727 68.4091Z" fill="#3C1DFE"/>
<path d="M66.8182 68.4091C66.8182 67.5305 67.5305 66.8182 68.4091 66.8182C69.2877 66.8182 70 67.5305 70 68.4091C70 69.2877 69.2877 70 68.4091 70C67.5305 70 66.8182 69.2877 66.8182 68.4091Z" fill="#3C1DFE"/>
</svg>
