<svg width="289" height="31" viewBox="0 0 289 31" fill="none" xmlns="http://www.w3.org/2000/svg">
<path d="M2.16211 2.78516L18.138 18.761C23.5969 24.2199 32.4475 24.2199 37.9064 18.761L43.998 12.6694C49.457 7.21048 58.3076 7.21049 63.7665 12.6694L69.8581 18.761C75.3171 24.2199 84.1677 24.2199 89.6266 18.761L95.7182 12.6694C101.177 7.21048 110.028 7.21049 115.487 12.6694L121.578 18.761C127.037 24.2199 135.888 24.2199 141.347 18.761L147.438 12.6694C152.897 7.21048 161.748 7.21049 167.207 12.6694L173.299 18.761C178.757 24.2199 187.608 24.2199 193.067 18.761L199.159 12.6694C204.618 7.21048 213.468 7.21049 218.927 12.6694L225.019 18.761C230.478 24.2199 239.328 24.2199 244.787 18.761L250.879 12.6694C256.338 7.21048 265.188 7.21049 270.647 12.6694L286.623 28.6452" stroke="#3C1DFE" stroke-opacity="0.5" stroke-width="5.59137"/>
</svg>
