<svg width="1009" height="1009" viewBox="0 0 1009 1009" fill="none" xmlns="http://www.w3.org/2000/svg">
<path d="M1000.75 504.373C1000.75 778.367 778.631 1000.48 504.637 1000.48C230.643 1000.48 8.52734 778.367 8.52734 504.373V8.26318H504.637C778.631 8.26318 1000.75 230.379 1000.75 504.373Z" stroke="#362AB8" stroke-width="16"/>
<path d="M906.549 504.373C906.549 726.343 726.607 906.285 504.637 906.285C282.668 906.285 102.725 726.343 102.725 504.373V102.461H504.637C726.607 102.461 906.549 282.403 906.549 504.373Z" stroke="#362AB8" stroke-width="16"/>
<path d="M806.071 504.373C806.071 670.851 671.115 805.807 504.637 805.807C338.16 805.807 203.203 670.851 203.203 504.373V202.939H504.637C671.115 202.939 806.071 337.896 806.071 504.373Z" stroke="#362AB8" stroke-width="16"/>
<path d="M705.593 504.373C705.593 615.358 615.622 705.329 504.637 705.329C393.652 705.329 303.681 615.358 303.681 504.373V303.417H504.637C615.622 303.417 705.593 393.388 705.593 504.373Z" stroke="#362AB8" stroke-width="16"/>
<path d="M609.825 504.373C609.825 562.467 562.731 609.561 504.638 609.561C446.544 609.561 399.45 562.467 399.45 504.373V399.185H504.638C562.731 399.185 609.825 446.28 609.825 504.373Z" stroke="#362AB8" stroke-width="16"/>
</svg>
