<svg width="24" height="20" viewBox="0 0 24 20" fill="none" xmlns="http://www.w3.org/2000/svg">
<path d="M21.5336 4.93502C21.5492 5.15158 21.5492 5.36814 21.5492 5.58614C21.5492 12.1905 16.5995 19.8017 7.55435 19.8017C4.76753 19.8017 2.17835 18.9814 0 17.5587C0.396706 17.6046 0.777882 17.6189 1.18871 17.6189C3.48847 17.6189 5.60329 16.8301 7.29459 15.4849C5.13176 15.439 3.32047 13.999 2.69647 12.0184C3 12.0643 3.30494 12.0959 3.62259 12.0959C4.06588 12.0959 4.50776 12.0342 4.91859 11.9267C2.66541 11.462 0.974118 9.45125 0.974118 7.02319C0.974118 7.00741 0.974118 6.97586 0.974118 6.96152C1.62918 7.33153 2.39012 7.56387 3.19765 7.59542C1.87341 6.69763 1.00518 5.16592 1.00518 3.43486C1.00518 2.50695 1.24941 1.65505 1.67576 0.912139C4.09694 3.94543 7.73647 5.92604 11.8179 6.14116C11.7402 5.76971 11.6951 5.38248 11.6951 4.99525C11.6951 2.24306 13.8889 0 16.6136 0C18.0296 0 19.3087 0.602356 20.208 1.5776C21.3191 1.36104 22.3835 0.943691 23.3294 0.371453C22.9638 1.53171 22.1873 2.50695 21.1666 3.12365C22.1576 3.01608 23.1162 2.73785 24 2.35062C23.3294 3.34021 22.4922 4.22366 21.5336 4.93502Z" fill="#FF6CE1"/>
</svg>
