<svg width="304" height="153" viewBox="0 0 304 153" fill="none" xmlns="http://www.w3.org/2000/svg">
<rect width="303.044" height="153" fill="#2BFAE1"/>
<path fill-rule="evenodd" clip-rule="evenodd" d="M3.73544 153C2.45191 150.604 1.20649 148.184 0 145.741V131.418C3.17329 138.809 6.70297 146.01 10.5674 153H3.73544ZM13.0755 0V35.7276C13.0755 79.1605 26.2573 119.513 48.8368 153H56.1228C32.7816 119.828 19.0755 79.3792 19.0755 35.7276V0H13.0755ZM51.7394 0V35.7277C51.7394 81.1014 69.3749 122.355 98.1625 153H106.53C76.3972 123.06 57.7394 81.5743 57.7394 35.7277V0H51.7394ZM88.4701 0V35.7275C88.4701 86.0567 116.096 129.932 157.004 153H170.29C125.593 132.886 94.4701 87.9439 94.4701 35.7275V0H88.4701ZM126.167 0V35.7276C126.167 89.1912 169.487 132.535 222.927 132.535C256.252 132.535 285.64 115.68 303.044 90.028V78.4342C287.77 107.057 257.621 126.535 222.927 126.535C172.803 126.535 132.167 85.8803 132.167 35.7276V0H126.167ZM164.348 0V35.7276C164.348 68.094 190.573 94.3348 222.927 94.3348C255.281 94.3348 281.507 68.094 281.507 35.7276C281.507 22.2801 276.979 9.89 269.367 0H261.521C270.201 9.38171 275.507 21.9345 275.507 35.7276C275.507 64.7831 251.965 88.3348 222.927 88.3348C193.89 88.3348 170.348 64.7831 170.348 35.7276V0H164.348ZM303.044 136.198V143.773C298.522 147.135 293.783 150.219 288.85 153H275.565C285.452 148.551 294.675 142.887 303.044 136.198Z" fill="white"/>
<rect x="3" y="3" width="297.044" height="147" stroke="#3C1DFE" stroke-width="6"/>
</svg>
