<svg width="104" height="104" viewBox="0 0 104 104" fill="none" xmlns="http://www.w3.org/2000/svg">
<path d="M0 2.36364C0 1.05824 1.05824 0 2.36364 0C3.66904 0 4.72727 1.05824 4.72727 2.36364C4.72727 3.66904 3.66904 4.72727 2.36364 4.72727C1.05824 4.72727 0 3.66904 0 2.36364Z" fill="#3C1DFE"/>
<path d="M14.1818 2.36364C14.1818 1.05824 15.2401 0 16.5455 0C17.8509 0 18.9091 1.05824 18.9091 2.36364C18.9091 3.66904 17.8509 4.72727 16.5455 4.72727C15.2401 4.72727 14.1818 3.66904 14.1818 2.36364Z" fill="#3C1DFE"/>
<path d="M28.3636 2.36364C28.3636 1.05824 29.4219 0 30.7273 0C32.0327 0 33.0909 1.05824 33.0909 2.36364C33.0909 3.66904 32.0327 4.72727 30.7273 4.72727C29.4219 4.72727 28.3636 3.66904 28.3636 2.36364Z" fill="#3C1DFE"/>
<path d="M42.5455 2.36364C42.5455 1.05824 43.6037 0 44.9091 0C46.2145 0 47.2727 1.05824 47.2727 2.36364C47.2727 3.66904 46.2145 4.72727 44.9091 4.72727C43.6037 4.72727 42.5455 3.66904 42.5455 2.36364Z" fill="#3C1DFE"/>
<path d="M56.7273 2.36364C56.7273 1.05824 57.7855 0 59.0909 0C60.3963 0 61.4545 1.05824 61.4545 2.36364C61.4545 3.66904 60.3963 4.72727 59.0909 4.72727C57.7855 4.72727 56.7273 3.66904 56.7273 2.36364Z" fill="#3C1DFE"/>
<path d="M70.9091 2.36364C70.9091 1.05824 71.9673 0 73.2727 0C74.5781 0 75.6364 1.05824 75.6364 2.36364C75.6364 3.66904 74.5781 4.72727 73.2727 4.72727C71.9673 4.72727 70.9091 3.66904 70.9091 2.36364Z" fill="#3C1DFE"/>
<path d="M85.0909 2.36364C85.0909 1.05824 86.1491 0 87.4545 0C88.7599 0 89.8182 1.05824 89.8182 2.36364C89.8182 3.66904 88.7599 4.72727 87.4545 4.72727C86.1491 4.72727 85.0909 3.66904 85.0909 2.36364Z" fill="#3C1DFE"/>
<path d="M99.2727 2.36364C99.2727 1.05824 100.331 0 101.636 0C102.942 0 104 1.05824 104 2.36364C104 3.66904 102.942 4.72727 101.636 4.72727C100.331 4.72727 99.2727 3.66904 99.2727 2.36364Z" fill="#3C1DFE"/>
<path d="M0 16.5455C0 15.2401 1.05824 14.1818 2.36364 14.1818C3.66904 14.1818 4.72727 15.2401 4.72727 16.5455C4.72727 17.8509 3.66904 18.9091 2.36364 18.9091C1.05824 18.9091 0 17.8509 0 16.5455Z" fill="#3C1DFE"/>
<path d="M14.1818 16.5455C14.1818 15.2401 15.2401 14.1818 16.5455 14.1818C17.8509 14.1818 18.9091 15.2401 18.9091 16.5455C18.9091 17.8509 17.8509 18.9091 16.5455 18.9091C15.2401 18.9091 14.1818 17.8509 14.1818 16.5455Z" fill="#3C1DFE"/>
<path d="M28.3636 16.5455C28.3636 15.2401 29.4219 14.1818 30.7273 14.1818C32.0327 14.1818 33.0909 15.2401 33.0909 16.5455C33.0909 17.8509 32.0327 18.9091 30.7273 18.9091C29.4219 18.9091 28.3636 17.8509 28.3636 16.5455Z" fill="#3C1DFE"/>
<path d="M42.5455 16.5455C42.5455 15.2401 43.6037 14.1818 44.9091 14.1818C46.2145 14.1818 47.2727 15.2401 47.2727 16.5455C47.2727 17.8509 46.2145 18.9091 44.9091 18.9091C43.6037 18.9091 42.5455 17.8509 42.5455 16.5455Z" fill="#3C1DFE"/>
<path d="M56.7273 16.5455C56.7273 15.2401 57.7855 14.1818 59.0909 14.1818C60.3963 14.1818 61.4545 15.2401 61.4545 16.5455C61.4545 17.8509 60.3963 18.9091 59.0909 18.9091C57.7855 18.9091 56.7273 17.8509 56.7273 16.5455Z" fill="#3C1DFE"/>
<path d="M70.9091 16.5455C70.9091 15.2401 71.9673 14.1818 73.2727 14.1818C74.5781 14.1818 75.6364 15.2401 75.6364 16.5455C75.6364 17.8509 74.5781 18.9091 73.2727 18.9091C71.9673 18.9091 70.9091 17.8509 70.9091 16.5455Z" fill="#3C1DFE"/>
<path d="M85.0909 16.5455C85.0909 15.2401 86.1491 14.1818 87.4545 14.1818C88.7599 14.1818 89.8182 15.2401 89.8182 16.5455C89.8182 17.8509 88.7599 18.9091 87.4545 18.9091C86.1491 18.9091 85.0909 17.8509 85.0909 16.5455Z" fill="#3C1DFE"/>
<path d="M99.2727 16.5455C99.2727 15.2401 100.331 14.1818 101.636 14.1818C102.942 14.1818 104 15.2401 104 16.5455C104 17.8509 102.942 18.9091 101.636 18.9091C100.331 18.9091 99.2727 17.8509 99.2727 16.5455Z" fill="#3C1DFE"/>
<path d="M0 30.7273C0 29.4219 1.05824 28.3636 2.36364 28.3636C3.66904 28.3636 4.72727 29.4219 4.72727 30.7273C4.72727 32.0327 3.66904 33.0909 2.36364 33.0909C1.05824 33.0909 0 32.0327 0 30.7273Z" fill="#3C1DFE"/>
<path d="M14.1818 30.7273C14.1818 29.4219 15.2401 28.3636 16.5455 28.3636C17.8509 28.3636 18.9091 29.4219 18.9091 30.7273C18.9091 32.0327 17.8509 33.0909 16.5455 33.0909C15.2401 33.0909 14.1818 32.0327 14.1818 30.7273Z" fill="#3C1DFE"/>
<path d="M28.3636 30.7273C28.3636 29.4219 29.4219 28.3636 30.7273 28.3636C32.0327 28.3636 33.0909 29.4219 33.0909 30.7273C33.0909 32.0327 32.0327 33.0909 30.7273 33.0909C29.4219 33.0909 28.3636 32.0327 28.3636 30.7273Z" fill="#3C1DFE"/>
<path d="M42.5455 30.7273C42.5455 29.4219 43.6037 28.3636 44.9091 28.3636C46.2145 28.3636 47.2727 29.4219 47.2727 30.7273C47.2727 32.0327 46.2145 33.0909 44.9091 33.0909C43.6037 33.0909 42.5455 32.0327 42.5455 30.7273Z" fill="#3C1DFE"/>
<path d="M56.7273 30.7273C56.7273 29.4219 57.7855 28.3636 59.0909 28.3636C60.3963 28.3636 61.4545 29.4219 61.4545 30.7273C61.4545 32.0327 60.3963 33.0909 59.0909 33.0909C57.7855 33.0909 56.7273 32.0327 56.7273 30.7273Z" fill="#3C1DFE"/>
<path d="M70.9091 30.7273C70.9091 29.4219 71.9673 28.3636 73.2727 28.3636C74.5781 28.3636 75.6364 29.4219 75.6364 30.7273C75.6364 32.0327 74.5781 33.0909 73.2727 33.0909C71.9673 33.0909 70.9091 32.0327 70.9091 30.7273Z" fill="#3C1DFE"/>
<path d="M85.0909 30.7273C85.0909 29.4219 86.1491 28.3636 87.4545 28.3636C88.7599 28.3636 89.8182 29.4219 89.8182 30.7273C89.8182 32.0327 88.7599 33.0909 87.4545 33.0909C86.1491 33.0909 85.0909 32.0327 85.0909 30.7273Z" fill="#3C1DFE"/>
<path d="M99.2727 30.7273C99.2727 29.4219 100.331 28.3636 101.636 28.3636C102.942 28.3636 104 29.4219 104 30.7273C104 32.0327 102.942 33.0909 101.636 33.0909C100.331 33.0909 99.2727 32.0327 99.2727 30.7273Z" fill="#3C1DFE"/>
<path d="M0 44.9091C0 43.6037 1.05824 42.5455 2.36364 42.5455C3.66904 42.5455 4.72727 43.6037 4.72727 44.9091C4.72727 46.2145 3.66904 47.2727 2.36364 47.2727C1.05824 47.2727 0 46.2145 0 44.9091Z" fill="#3C1DFE"/>
<path d="M14.1818 44.9091C14.1818 43.6037 15.2401 42.5455 16.5455 42.5455C17.8509 42.5455 18.9091 43.6037 18.9091 44.9091C18.9091 46.2145 17.8509 47.2727 16.5455 47.2727C15.2401 47.2727 14.1818 46.2145 14.1818 44.9091Z" fill="#3C1DFE"/>
<path d="M28.3636 44.9091C28.3636 43.6037 29.4219 42.5455 30.7273 42.5455C32.0327 42.5455 33.0909 43.6037 33.0909 44.9091C33.0909 46.2145 32.0327 47.2727 30.7273 47.2727C29.4219 47.2727 28.3636 46.2145 28.3636 44.9091Z" fill="#3C1DFE"/>
<path d="M42.5455 44.9091C42.5455 43.6037 43.6037 42.5455 44.9091 42.5455C46.2145 42.5455 47.2727 43.6037 47.2727 44.9091C47.2727 46.2145 46.2145 47.2727 44.9091 47.2727C43.6037 47.2727 42.5455 46.2145 42.5455 44.9091Z" fill="#3C1DFE"/>
<path d="M56.7273 44.9091C56.7273 43.6037 57.7855 42.5455 59.0909 42.5455C60.3963 42.5455 61.4545 43.6037 61.4545 44.9091C61.4545 46.2145 60.3963 47.2727 59.0909 47.2727C57.7855 47.2727 56.7273 46.2145 56.7273 44.9091Z" fill="#3C1DFE"/>
<path d="M70.9091 44.9091C70.9091 43.6037 71.9673 42.5455 73.2727 42.5455C74.5781 42.5455 75.6364 43.6037 75.6364 44.9091C75.6364 46.2145 74.5781 47.2727 73.2727 47.2727C71.9673 47.2727 70.9091 46.2145 70.9091 44.9091Z" fill="#3C1DFE"/>
<path d="M85.0909 44.9091C85.0909 43.6037 86.1491 42.5455 87.4545 42.5455C88.7599 42.5455 89.8182 43.6037 89.8182 44.9091C89.8182 46.2145 88.7599 47.2727 87.4545 47.2727C86.1491 47.2727 85.0909 46.2145 85.0909 44.9091Z" fill="#3C1DFE"/>
<path d="M99.2727 44.9091C99.2727 43.6037 100.331 42.5455 101.636 42.5455C102.942 42.5455 104 43.6037 104 44.9091C104 46.2145 102.942 47.2727 101.636 47.2727C100.331 47.2727 99.2727 46.2145 99.2727 44.9091Z" fill="#3C1DFE"/>
<path d="M0 59.0909C0 57.7855 1.05824 56.7273 2.36364 56.7273C3.66904 56.7273 4.72727 57.7855 4.72727 59.0909C4.72727 60.3963 3.66904 61.4545 2.36364 61.4545C1.05824 61.4545 0 60.3963 0 59.0909Z" fill="#3C1DFE"/>
<path d="M14.1818 59.0909C14.1818 57.7855 15.2401 56.7273 16.5455 56.7273C17.8509 56.7273 18.9091 57.7855 18.9091 59.0909C18.9091 60.3963 17.8509 61.4545 16.5455 61.4545C15.2401 61.4545 14.1818 60.3963 14.1818 59.0909Z" fill="#3C1DFE"/>
<path d="M28.3636 59.0909C28.3636 57.7855 29.4219 56.7273 30.7273 56.7273C32.0327 56.7273 33.0909 57.7855 33.0909 59.0909C33.0909 60.3963 32.0327 61.4545 30.7273 61.4545C29.4219 61.4545 28.3636 60.3963 28.3636 59.0909Z" fill="#3C1DFE"/>
<path d="M42.5455 59.0909C42.5455 57.7855 43.6037 56.7273 44.9091 56.7273C46.2145 56.7273 47.2727 57.7855 47.2727 59.0909C47.2727 60.3963 46.2145 61.4545 44.9091 61.4545C43.6037 61.4545 42.5455 60.3963 42.5455 59.0909Z" fill="#3C1DFE"/>
<path d="M56.7273 59.0909C56.7273 57.7855 57.7855 56.7273 59.0909 56.7273C60.3963 56.7273 61.4545 57.7855 61.4545 59.0909C61.4545 60.3963 60.3963 61.4545 59.0909 61.4545C57.7855 61.4545 56.7273 60.3963 56.7273 59.0909Z" fill="#3C1DFE"/>
<path d="M70.9091 59.0909C70.9091 57.7855 71.9673 56.7273 73.2727 56.7273C74.5781 56.7273 75.6364 57.7855 75.6364 59.0909C75.6364 60.3963 74.5781 61.4545 73.2727 61.4545C71.9673 61.4545 70.9091 60.3963 70.9091 59.0909Z" fill="#3C1DFE"/>
<path d="M85.0909 59.0909C85.0909 57.7855 86.1491 56.7273 87.4545 56.7273C88.7599 56.7273 89.8182 57.7855 89.8182 59.0909C89.8182 60.3963 88.7599 61.4545 87.4545 61.4545C86.1491 61.4545 85.0909 60.3963 85.0909 59.0909Z" fill="#3C1DFE"/>
<path d="M99.2727 59.0909C99.2727 57.7855 100.331 56.7273 101.636 56.7273C102.942 56.7273 104 57.7855 104 59.0909C104 60.3963 102.942 61.4545 101.636 61.4545C100.331 61.4545 99.2727 60.3963 99.2727 59.0909Z" fill="#3C1DFE"/>
<path d="M0 73.2727C0 71.9673 1.05824 70.9091 2.36364 70.9091C3.66904 70.9091 4.72727 71.9673 4.72727 73.2727C4.72727 74.5781 3.66904 75.6364 2.36364 75.6364C1.05824 75.6364 0 74.5781 0 73.2727Z" fill="#3C1DFE"/>
<path d="M14.1818 73.2727C14.1818 71.9673 15.2401 70.9091 16.5455 70.9091C17.8509 70.9091 18.9091 71.9673 18.9091 73.2727C18.9091 74.5781 17.8509 75.6364 16.5455 75.6364C15.2401 75.6364 14.1818 74.5781 14.1818 73.2727Z" fill="#3C1DFE"/>
<path d="M28.3636 73.2727C28.3636 71.9673 29.4219 70.9091 30.7273 70.9091C32.0327 70.9091 33.0909 71.9673 33.0909 73.2727C33.0909 74.5781 32.0327 75.6364 30.7273 75.6364C29.4219 75.6364 28.3636 74.5781 28.3636 73.2727Z" fill="#3C1DFE"/>
<path d="M42.5455 73.2727C42.5455 71.9673 43.6037 70.9091 44.9091 70.9091C46.2145 70.9091 47.2727 71.9673 47.2727 73.2727C47.2727 74.5781 46.2145 75.6364 44.9091 75.6364C43.6037 75.6364 42.5455 74.5781 42.5455 73.2727Z" fill="#3C1DFE"/>
<path d="M56.7273 73.2727C56.7273 71.9673 57.7855 70.9091 59.0909 70.9091C60.3963 70.9091 61.4545 71.9673 61.4545 73.2727C61.4545 74.5781 60.3963 75.6364 59.0909 75.6364C57.7855 75.6364 56.7273 74.5781 56.7273 73.2727Z" fill="#3C1DFE"/>
<path d="M70.9091 73.2727C70.9091 71.9673 71.9673 70.9091 73.2727 70.9091C74.5781 70.9091 75.6364 71.9673 75.6364 73.2727C75.6364 74.5781 74.5781 75.6364 73.2727 75.6364C71.9673 75.6364 70.9091 74.5781 70.9091 73.2727Z" fill="#3C1DFE"/>
<path d="M85.0909 73.2727C85.0909 71.9673 86.1491 70.9091 87.4545 70.9091C88.7599 70.9091 89.8182 71.9673 89.8182 73.2727C89.8182 74.5781 88.7599 75.6364 87.4545 75.6364C86.1491 75.6364 85.0909 74.5781 85.0909 73.2727Z" fill="#3C1DFE"/>
<path d="M99.2727 73.2727C99.2727 71.9673 100.331 70.9091 101.636 70.9091C102.942 70.9091 104 71.9673 104 73.2727C104 74.5781 102.942 75.6364 101.636 75.6364C100.331 75.6364 99.2727 74.5781 99.2727 73.2727Z" fill="#3C1DFE"/>
<path d="M0 87.4545C0 86.1491 1.05824 85.0909 2.36364 85.0909C3.66904 85.0909 4.72727 86.1491 4.72727 87.4545C4.72727 88.7599 3.66904 89.8182 2.36364 89.8182C1.05824 89.8182 0 88.7599 0 87.4545Z" fill="#3C1DFE"/>
<path d="M14.1818 87.4545C14.1818 86.1491 15.2401 85.0909 16.5455 85.0909C17.8509 85.0909 18.9091 86.1491 18.9091 87.4545C18.9091 88.7599 17.8509 89.8182 16.5455 89.8182C15.2401 89.8182 14.1818 88.7599 14.1818 87.4545Z" fill="#3C1DFE"/>
<path d="M28.3636 87.4545C28.3636 86.1491 29.4219 85.0909 30.7273 85.0909C32.0327 85.0909 33.0909 86.1491 33.0909 87.4545C33.0909 88.7599 32.0327 89.8182 30.7273 89.8182C29.4219 89.8182 28.3636 88.7599 28.3636 87.4545Z" fill="#3C1DFE"/>
<path d="M42.5455 87.4545C42.5455 86.1491 43.6037 85.0909 44.9091 85.0909C46.2145 85.0909 47.2727 86.1491 47.2727 87.4545C47.2727 88.7599 46.2145 89.8182 44.9091 89.8182C43.6037 89.8182 42.5455 88.7599 42.5455 87.4545Z" fill="#3C1DFE"/>
<path d="M56.7273 87.4545C56.7273 86.1491 57.7855 85.0909 59.0909 85.0909C60.3963 85.0909 61.4545 86.1491 61.4545 87.4545C61.4545 88.7599 60.3963 89.8182 59.0909 89.8182C57.7855 89.8182 56.7273 88.7599 56.7273 87.4545Z" fill="#3C1DFE"/>
<path d="M70.9091 87.4545C70.9091 86.1491 71.9673 85.0909 73.2727 85.0909C74.5781 85.0909 75.6364 86.1491 75.6364 87.4545C75.6364 88.7599 74.5781 89.8182 73.2727 89.8182C71.9673 89.8182 70.9091 88.7599 70.9091 87.4545Z" fill="#3C1DFE"/>
<path d="M85.0909 87.4545C85.0909 86.1491 86.1491 85.0909 87.4545 85.0909C88.7599 85.0909 89.8182 86.1491 89.8182 87.4545C89.8182 88.7599 88.7599 89.8182 87.4545 89.8182C86.1491 89.8182 85.0909 88.7599 85.0909 87.4545Z" fill="#3C1DFE"/>
<path d="M99.2727 87.4545C99.2727 86.1491 100.331 85.0909 101.636 85.0909C102.942 85.0909 104 86.1491 104 87.4545C104 88.7599 102.942 89.8182 101.636 89.8182C100.331 89.8182 99.2727 88.7599 99.2727 87.4545Z" fill="#3C1DFE"/>
<path d="M0 101.636C0 100.331 1.05824 99.2727 2.36364 99.2727C3.66904 99.2727 4.72727 100.331 4.72727 101.636C4.72727 102.942 3.66904 104 2.36364 104C1.05824 104 0 102.942 0 101.636Z" fill="#3C1DFE"/>
<path d="M14.1818 101.636C14.1818 100.331 15.2401 99.2727 16.5455 99.2727C17.8509 99.2727 18.9091 100.331 18.9091 101.636C18.9091 102.942 17.8509 104 16.5455 104C15.2401 104 14.1818 102.942 14.1818 101.636Z" fill="#3C1DFE"/>
<path d="M28.3636 101.636C28.3636 100.331 29.4219 99.2727 30.7273 99.2727C32.0327 99.2727 33.0909 100.331 33.0909 101.636C33.0909 102.942 32.0327 104 30.7273 104C29.4219 104 28.3636 102.942 28.3636 101.636Z" fill="#3C1DFE"/>
<path d="M42.5455 101.636C42.5455 100.331 43.6037 99.2727 44.9091 99.2727C46.2145 99.2727 47.2727 100.331 47.2727 101.636C47.2727 102.942 46.2145 104 44.9091 104C43.6037 104 42.5455 102.942 42.5455 101.636Z" fill="#3C1DFE"/>
<path d="M56.7273 101.636C56.7273 100.331 57.7855 99.2727 59.0909 99.2727C60.3963 99.2727 61.4545 100.331 61.4545 101.636C61.4545 102.942 60.3963 104 59.0909 104C57.7855 104 56.7273 102.942 56.7273 101.636Z" fill="#3C1DFE"/>
<path d="M70.9091 101.636C70.9091 100.331 71.9673 99.2727 73.2727 99.2727C74.5781 99.2727 75.6364 100.331 75.6364 101.636C75.6364 102.942 74.5781 104 73.2727 104C71.9673 104 70.9091 102.942 70.9091 101.636Z" fill="#3C1DFE"/>
<path d="M85.0909 101.636C85.0909 100.331 86.1491 99.2727 87.4545 99.2727C88.7599 99.2727 89.8182 100.331 89.8182 101.636C89.8182 102.942 88.7599 104 87.4545 104C86.1491 104 85.0909 102.942 85.0909 101.636Z" fill="#3C1DFE"/>
<path d="M99.2727 101.636C99.2727 100.331 100.331 99.2727 101.636 99.2727C102.942 99.2727 104 100.331 104 101.636C104 102.942 102.942 104 101.636 104C100.331 104 99.2727 102.942 99.2727 101.636Z" fill="#3C1DFE"/>
</svg>
