<svg width="49" height="408" viewBox="0 0 49 408" fill="none" xmlns="http://www.w3.org/2000/svg">
<path fill-rule="evenodd" clip-rule="evenodd" d="M0.707397 0H24.7074C37.9622 0 48.7074 10.7452 48.7074 24C48.7074 37.2548 37.9622 48 24.7074 48C11.4526 48 0.707397 37.2548 0.707397 24V0ZM3.04448 2.33708V24C3.04448 35.9641 12.7433 45.6629 24.7074 45.6629C36.6715 45.6629 46.3703 35.9641 46.3703 24C46.3703 12.0359 36.6715 2.33708 24.7074 2.33708H3.04448Z" fill="#3C1DFE"/>
<path fill-rule="evenodd" clip-rule="evenodd" d="M5.04199 4.33496H24.7069C35.5675 4.33496 44.3718 13.1392 44.3718 23.9999C44.3718 34.8605 35.5675 43.6648 24.7069 43.6648C13.8463 43.6648 5.04199 34.8605 5.04199 23.9999V4.33496ZM7.37907 6.67204V23.9999C7.37907 33.5698 15.137 41.3277 24.7069 41.3277C34.2768 41.3277 42.0347 33.5698 42.0347 23.9999C42.0347 14.43 34.2768 6.67204 24.7069 6.67204H7.37907Z" fill="#3C1DFE"/>
<path fill-rule="evenodd" clip-rule="evenodd" d="M9.66614 8.95898H24.707C33.0138 8.95898 39.7478 15.693 39.7478 23.9998C39.7478 32.3066 33.0138 39.0406 24.707 39.0406C16.4001 39.0406 9.66614 32.3066 9.66614 23.9998V8.95898ZM12.0032 11.2961V23.9998C12.0032 31.0159 17.6909 36.7035 24.707 36.7035C31.723 36.7035 37.4107 31.0159 37.4107 23.9998C37.4107 16.9837 31.723 11.2961 24.707 11.2961H12.0032Z" fill="#3C1DFE"/>
<path fill-rule="evenodd" clip-rule="evenodd" d="M14.29 13.583H24.7068C30.4598 13.583 35.1235 18.2467 35.1235 23.9997C35.1235 29.7527 30.4598 34.4165 24.7068 34.4165C18.9538 34.4165 14.29 29.7527 14.29 23.9997V13.583ZM16.6271 15.9201V23.9997C16.6271 28.462 20.2445 32.0794 24.7068 32.0794C29.169 32.0794 32.7864 28.462 32.7864 23.9997C32.7864 19.5375 29.169 15.9201 24.7068 15.9201H16.6271Z" fill="#3C1DFE"/>
<path fill-rule="evenodd" clip-rule="evenodd" d="M18.698 17.9902H24.7074C28.0263 17.9902 30.7168 20.6807 30.7168 23.9996C30.7168 27.3185 28.0263 30.009 24.7074 30.009C21.3885 30.009 18.698 27.3185 18.698 23.9996V17.9902ZM21.0351 20.3273V23.9996C21.0351 26.0278 22.6792 27.6719 24.7074 27.6719C26.7355 27.6719 28.3797 26.0278 28.3797 23.9996C28.3797 21.9715 26.7355 20.3273 24.7074 20.3273H21.0351Z" fill="#3C1DFE"/>
<path d="M31.0126 387.602C31.0126 388.855 31.0126 389.951 30.895 391.125C29.4051 391.125 27.6409 391.125 25.4061 391.125C23.3282 391.125 21.1718 391.086 19.1331 391.047C19.0939 389.912 19.0547 388.777 19.0547 387.602C19.0547 384.745 19.9957 383.493 24.9356 383.493C29.954 383.493 31.0126 384.784 31.0126 387.602ZM10.8606 406.977C14.8989 406.898 19.3684 406.859 25.6021 406.859C31.8359 406.859 36.1094 406.898 40.2652 406.977L40.2652 385.489C40.2652 371.947 37.1288 367.367 24.3867 367.367C13.409 367.367 10.8606 372.69 10.8606 385.254L10.8606 406.977Z" fill="#3C1DFE"/>
<path d="M28.1897 346.545L28.1897 349.402C25.6805 348.932 23.1714 348.423 20.819 347.876C19.0155 347.406 17.1336 346.975 15.6046 346.662L15.6046 346.584C17.1336 346.271 19.0547 345.84 20.7798 345.331C23.1321 344.744 25.6805 344.196 28.1897 343.766L28.1897 346.545ZM40.2652 324.079C32.8161 326.74 14.9381 331.398 10.8606 332.337L10.8606 359.774C14.8596 360.557 32.8161 365.097 40.2652 367.641L40.2652 351.085C39.0499 351.046 37.2072 350.85 35.0508 350.537L35.0508 346.545L35.0508 342.709C37.2072 342.435 39.0499 342.279 40.2652 342.239L40.2652 324.079Z" fill="#3C1DFE"/>
<path d="M24.9356 281.875C13.9579 281.875 10.1941 288.177 10.1941 303.285C10.1941 318.392 13.9579 324.381 24.9356 324.381C35.9526 324.381 40.9317 319.332 40.9317 303.324C40.9317 287.276 35.9526 281.875 24.9356 281.875ZM31.1302 303.245C31.1302 306.494 29.4835 307.786 24.8964 307.786C20.5445 307.786 19.0939 306.494 19.0939 303.245C19.0939 299.997 20.5445 298.705 24.8964 298.705C29.4443 298.705 31.1302 299.997 31.1302 303.245Z" fill="#3C1DFE"/>
<path d="M31.0126 249.425C31.0126 250.677 31.0126 251.773 30.895 252.947C29.4051 252.947 27.6409 252.947 25.4061 252.947C23.3282 252.947 21.1718 252.908 19.1331 252.869C19.0939 251.734 19.0547 250.599 19.0547 249.425C19.0547 246.567 19.9956 245.315 24.9356 245.315C29.954 245.315 31.0126 246.607 31.0126 249.425ZM10.8606 268.799C14.8988 268.72 19.3683 268.681 25.6021 268.681C31.8359 268.681 36.1094 268.72 40.2652 268.799L40.2652 247.311C40.2652 233.769 37.1287 229.189 24.3867 229.189C13.409 229.189 10.8606 234.512 10.8606 247.076L10.8606 268.799Z" fill="#3C1DFE"/>
<path d="M24.622 207.662C24.622 209.306 24.622 210.794 24.5828 211.968C22.5048 212.007 20.3877 212.007 18.2706 212.007C18.1922 210.48 18.153 208.68 18.153 207.897C18.153 205.392 18.8195 204.414 21.3287 204.414C23.681 204.414 24.622 205.314 24.622 207.662ZM27.6016 197.643C26.8567 191.341 24.7004 188.915 19.3291 188.915C12.8993 188.915 10.8606 193.846 10.8606 202.966L10.8606 227.545C15.0949 227.389 19.3291 227.35 25.5629 227.35C31.8751 227.35 36.031 227.428 40.2652 227.545L40.2652 211.302C38.1481 211.615 34.894 211.772 31.1302 211.889C31.091 210.48 31.091 209.698 31.091 208.523C31.091 205.94 32.1104 205.353 36.6975 204.844C39.5987 204.453 40.2652 203.709 40.2652 201.204L40.2652 188.014C38.9322 188.367 36.3446 188.758 34.4235 189.149C29.9148 189.893 28.5426 192.202 27.9153 197.643L27.6016 197.643Z" fill="#3C1DFE"/>
<path d="M24.9356 145.15C13.9579 145.15 10.1941 151.451 10.1941 166.559C10.1941 181.667 13.9579 187.655 24.9356 187.655C35.9526 187.655 40.9317 182.606 40.9317 166.598C40.9317 150.551 35.9526 145.15 24.9356 145.15ZM31.1302 166.52C31.1302 169.769 29.4835 171.06 24.8964 171.06C20.5445 171.06 19.0939 169.769 19.0939 166.52C19.0939 163.271 20.5445 161.98 24.8964 161.98C29.4443 161.98 31.1302 163.271 31.1302 166.52Z" fill="#3C1DFE"/>
<path d="M26.8175 124.764C26.8175 126.094 26.7783 127.229 26.7783 128.169C24.2299 128.169 21.5247 128.208 18.6234 128.208C18.5842 126.877 18.5842 125.272 18.5842 124.529C18.5842 121.828 19.3291 120.771 22.7009 120.771C25.8766 120.771 26.8175 121.75 26.8175 124.764ZM10.8606 143.551C15.0557 143.433 19.3291 143.355 25.5629 143.355C31.8359 143.355 35.9918 143.433 40.2652 143.551L40.2652 127.582C38.6186 127.738 36.6191 127.895 34.3451 127.973C34.3843 125.703 34.3843 123.629 34.3843 122.063C34.3843 109.147 31.0518 105.82 22.1128 105.82C12.7425 105.82 10.8606 110.83 10.8606 119.675L10.8606 143.551Z" fill="#3C1DFE"/>
<path d="M30.6597 91.7191C30.6989 92.6193 30.7381 93.8326 30.7381 95.2025C30.7381 98.6468 30.5029 102.248 30.3461 104.909C31.1302 104.987 31.9143 105.027 32.62 105.027C38.7362 105.027 40.9709 101.347 40.9709 86.5527C40.9709 72.4233 38.1873 68.1571 31.5223 68.1571C25.0532 68.1571 22.8577 71.1317 21.9167 81.9342C21.3286 88.7054 20.4661 89.3707 19.0547 89.3707C18.0353 89.3707 17.408 88.627 17.408 85.8481C17.408 82.5995 18.1137 81.895 19.5644 81.895L20.2701 81.895C20.1917 80.9166 20.1917 79.3901 20.1917 77.668C20.1917 74.6934 20.3093 70.9751 20.5053 68.7833C19.8388 68.7442 19.1723 68.7442 18.5842 68.7442C12.6249 68.7442 10.1549 72.2276 10.1549 86.9832C10.1549 99.9384 12.8209 105.144 19.7996 105.144C25.4061 105.144 28.1113 102.952 29.0131 90.858C29.4443 84.8305 30.3461 84.0869 31.8359 84.0869C33.0121 84.0869 33.6002 84.7914 33.6002 87.8051C33.6002 90.8189 32.8945 91.7191 31.2478 91.7191L30.6597 91.7191Z" fill="#3C1DFE"/>
</svg>
