<svg width="44" height="45" viewBox="0 0 44 45" fill="none" xmlns="http://www.w3.org/2000/svg">
<mask id="path-1-outside-1_1335_36264" maskUnits="userSpaceOnUse" x="0" y="0.400391" width="44" height="44" fill="black">
<rect fill="white" y="0.400391" width="44" height="44"/>
<path d="M38 22.4004C38 31.2369 30.8366 38.4004 22 38.4004C13.1634 38.4004 6 31.2369 6 22.4004C6 13.5638 13.1634 6.40039 22 6.40039C30.8366 6.40039 38 13.5638 38 22.4004Z"/>
</mask>
<path d="M38 22.4004C38 31.2369 30.8366 38.4004 22 38.4004C13.1634 38.4004 6 31.2369 6 22.4004C6 13.5638 13.1634 6.40039 22 6.40039C30.8366 6.40039 38 13.5638 38 22.4004Z" fill="white"/>
<path d="M32 22.4004C32 27.9232 27.5228 32.4004 22 32.4004V44.4004C34.1503 44.4004 44 34.5507 44 22.4004H32ZM22 32.4004C16.4772 32.4004 12 27.9232 12 22.4004H0C0 34.5507 9.84974 44.4004 22 44.4004V32.4004ZM12 22.4004C12 16.8775 16.4772 12.4004 22 12.4004V0.400391C9.84974 0.400391 0 10.2501 0 22.4004H12ZM22 12.4004C27.5228 12.4004 32 16.8775 32 22.4004H44C44 10.2501 34.1503 0.400391 22 0.400391V12.4004Z" fill="#3C1DFE" mask="url(#path-1-outside-1_1335_36264)"/>
<path d="M27.3137 27.7141L16 16.4004M16 27.7142L27.3137 16.4005" stroke="#3C1DFE" stroke-width="4"/>
</svg>
