<svg width="49" height="48" viewBox="0 0 49 48" fill="none" xmlns="http://www.w3.org/2000/svg">
<path fill-rule="evenodd" clip-rule="evenodd" d="M0.707397 0H24.7074C37.9622 0 48.7074 10.7452 48.7074 24C48.7074 37.2548 37.9622 48 24.7074 48C11.4526 48 0.707397 37.2548 0.707397 24V0ZM3.04448 2.33708V24C3.04448 35.9641 12.7433 45.6629 24.7074 45.6629C36.6715 45.6629 46.3703 35.9641 46.3703 24C46.3703 12.0359 36.6715 2.33708 24.7074 2.33708H3.04448Z" fill="#3C1DFE"/>
<path fill-rule="evenodd" clip-rule="evenodd" d="M5.04199 4.33496H24.7069C35.5675 4.33496 44.3718 13.1392 44.3718 23.9999C44.3718 34.8605 35.5675 43.6648 24.7069 43.6648C13.8463 43.6648 5.04199 34.8605 5.04199 23.9999V4.33496ZM7.37907 6.67204V23.9999C7.37907 33.5698 15.137 41.3277 24.7069 41.3277C34.2768 41.3277 42.0347 33.5698 42.0347 23.9999C42.0347 14.43 34.2768 6.67204 24.7069 6.67204H7.37907Z" fill="#3C1DFE"/>
<path fill-rule="evenodd" clip-rule="evenodd" d="M9.66614 8.95898H24.707C33.0138 8.95898 39.7478 15.693 39.7478 23.9998C39.7478 32.3066 33.0138 39.0406 24.707 39.0406C16.4001 39.0406 9.66614 32.3066 9.66614 23.9998V8.95898ZM12.0032 11.2961V23.9998C12.0032 31.0159 17.6909 36.7035 24.707 36.7035C31.723 36.7035 37.4107 31.0159 37.4107 23.9998C37.4107 16.9837 31.723 11.2961 24.707 11.2961H12.0032Z" fill="#3C1DFE"/>
<path fill-rule="evenodd" clip-rule="evenodd" d="M14.29 13.583H24.7068C30.4598 13.583 35.1235 18.2467 35.1235 23.9997C35.1235 29.7527 30.4598 34.4165 24.7068 34.4165C18.9538 34.4165 14.29 29.7527 14.29 23.9997V13.583ZM16.6271 15.9201V23.9997C16.6271 28.462 20.2445 32.0794 24.7068 32.0794C29.169 32.0794 32.7864 28.462 32.7864 23.9997C32.7864 19.5375 29.169 15.9201 24.7068 15.9201H16.6271Z" fill="#3C1DFE"/>
<path fill-rule="evenodd" clip-rule="evenodd" d="M18.698 17.9902H24.7074C28.0263 17.9902 30.7168 20.6807 30.7168 23.9996C30.7168 27.3185 28.0263 30.009 24.7074 30.009C21.3885 30.009 18.698 27.3185 18.698 23.9996V17.9902ZM21.0351 20.3273V23.9996C21.0351 26.0278 22.6792 27.6719 24.7074 27.6719C26.7355 27.6719 28.3797 26.0278 28.3797 23.9996C28.3797 21.9715 26.7355 20.3273 24.7074 20.3273H21.0351Z" fill="#3C1DFE"/>
</svg>
