<svg width="24" height="20" viewBox="0 0 24 20" fill="none" xmlns="http://www.w3.org/2000/svg">
<path d="M21.5336 4.93404C21.5492 5.1506 21.5492 5.36716 21.5492 5.58516C21.5492 12.1896 16.5995 19.8008 7.55435 19.8008C4.76753 19.8008 2.17835 18.9804 0 17.5577C0.396706 17.6036 0.777882 17.6179 1.18871 17.6179C3.48847 17.6179 5.60329 16.8291 7.29459 15.4839C5.13176 15.438 3.32047 13.9981 2.69647 12.0175C3 12.0634 3.30494 12.0949 3.62259 12.0949C4.06588 12.0949 4.50776 12.0332 4.91859 11.9257C2.66541 11.461 0.974118 9.45028 0.974118 7.02221C0.974118 7.00643 0.974118 6.97488 0.974118 6.96054C1.62918 7.33056 2.39012 7.5629 3.19765 7.59445C1.87341 6.69665 1.00518 5.16494 1.00518 3.43389C1.00518 2.50597 1.24941 1.65407 1.67576 0.911163C4.09694 3.94446 7.73647 5.92506 11.8179 6.14019C11.7402 5.76873 11.6951 5.38151 11.6951 4.99428C11.6951 2.24208 13.8889 -0.000976562 16.6136 -0.000976562C18.0296 -0.000976562 19.3087 0.60138 20.208 1.57662C21.3191 1.36006 22.3835 0.942715 23.3294 0.370476C22.9638 1.53073 22.1873 2.50597 21.1666 3.12267C22.1576 3.01511 23.1162 2.73688 24 2.34965C23.3294 3.33923 22.4922 4.22269 21.5336 4.93404Z" fill="#F500BB"/>
</svg>
