<svg width="439" height="71" viewBox="0 0 439 71" fill="none" xmlns="http://www.w3.org/2000/svg">
<rect width="439" height="71" fill="#2BFAE1"/>
<path fill-rule="evenodd" clip-rule="evenodd" d="M382.9 0C402.027 20.4403 417.348 44.4833 427.733 71H421.274C410.469 44.2768 394.492 20.1968 374.582 0H382.9ZM12.2676 71C22.653 44.4833 37.9739 20.4403 57.1008 0H65.4194C45.5093 20.1968 29.5317 44.2768 18.727 71H12.2676ZM389.974 71C376.415 42.7023 355.991 18.3174 330.857 0H320.333C347.08 17.6475 368.901 42.1484 383.294 71H389.974ZM56.707 71H50.0267C63.5858 42.7023 84.0101 18.3174 109.143 0H119.667C92.9208 17.6475 71.0994 42.1484 56.707 71ZM350.499 71C326.857 33.1299 287.174 6.29679 240.954 0H199.048C152.828 6.29679 113.144 33.1299 89.5016 71H96.6327C123.055 30.9862 168.443 4.5845 220.001 4.5845C271.558 4.5845 316.946 30.9862 343.368 71H350.499ZM309.382 71C287.286 46.7213 255.423 31.481 220 31.481C184.577 31.481 152.715 46.7213 130.619 71H138.914C159.681 50.2878 188.344 37.481 220 37.481C251.657 37.481 280.32 50.2878 301.086 71H309.382ZM251.196 71C241.512 67.2817 230.994 65.2439 220 65.2439C209.007 65.2439 198.489 67.2817 188.805 71H251.196Z" fill="white"/>
<rect x="3" y="3" width="433" height="65" stroke="#3C1DFE" stroke-width="6"/>
</svg>
