<svg width="150" height="150" viewBox="0 0 150 150" fill="none" xmlns="http://www.w3.org/2000/svg">
<g opacity="0.5">
<path d="M0.570068 3.39254C0.570068 1.51889 2.08896 0 3.9626 0C5.83625 0 7.35514 1.51889 7.35514 3.39254C7.35514 5.26618 5.83625 6.78507 3.9626 6.78507C2.08896 6.78507 0.570068 5.26618 0.570068 3.39254Z" fill="#3C1DFE"/>
<path d="M20.9253 3.39254C20.9253 1.51889 22.4442 0 24.3178 0C26.1915 0 27.7104 1.51889 27.7104 3.39254C27.7104 5.26618 26.1915 6.78507 24.3178 6.78507C22.4442 6.78507 20.9253 5.26618 20.9253 3.39254Z" fill="#3C1DFE"/>
<path d="M41.2805 3.39254C41.2805 1.51889 42.7994 0 44.673 0C46.5467 0 48.0656 1.51889 48.0656 3.39254C48.0656 5.26618 46.5467 6.78507 44.673 6.78507C42.7994 6.78507 41.2805 5.26618 41.2805 3.39254Z" fill="#3C1DFE"/>
<path d="M61.6357 3.39254C61.6357 1.51889 63.1546 0 65.0283 0C66.9019 0 68.4208 1.51889 68.4208 3.39254C68.4208 5.26618 66.9019 6.78507 65.0283 6.78507C63.1546 6.78507 61.6357 5.26618 61.6357 3.39254Z" fill="#3C1DFE"/>
<path d="M81.9909 3.39254C81.9909 1.51889 83.5098 0 85.3835 0C87.2571 0 88.776 1.51889 88.776 3.39254C88.776 5.26618 87.2571 6.78507 85.3835 6.78507C83.5098 6.78507 81.9909 5.26618 81.9909 3.39254Z" fill="#3C1DFE"/>
<path d="M102.346 3.39254C102.346 1.51889 103.865 0 105.739 0C107.612 0 109.131 1.51889 109.131 3.39254C109.131 5.26618 107.612 6.78507 105.739 6.78507C103.865 6.78507 102.346 5.26618 102.346 3.39254Z" fill="#3C1DFE"/>
<path d="M122.701 3.39254C122.701 1.51889 124.22 0 126.094 0C127.968 0 129.486 1.51889 129.486 3.39254C129.486 5.26618 127.968 6.78507 126.094 6.78507C124.22 6.78507 122.701 5.26618 122.701 3.39254Z" fill="#3C1DFE"/>
<path d="M143.057 3.39254C143.057 1.51889 144.575 0 146.449 0C148.323 0 149.842 1.51889 149.842 3.39254C149.842 5.26618 148.323 6.78507 146.449 6.78507C144.575 6.78507 143.057 5.26618 143.057 3.39254Z" fill="#3C1DFE"/>
<path d="M0.570068 23.7478C0.570068 21.8741 2.08896 20.3552 3.9626 20.3552C5.83625 20.3552 7.35514 21.8741 7.35514 23.7478C7.35514 25.6214 5.83625 27.1403 3.9626 27.1403C2.08896 27.1403 0.570068 25.6214 0.570068 23.7478Z" fill="#3C1DFE"/>
<path d="M20.9253 23.7478C20.9253 21.8741 22.4442 20.3552 24.3178 20.3552C26.1915 20.3552 27.7104 21.8741 27.7104 23.7478C27.7104 25.6214 26.1915 27.1403 24.3178 27.1403C22.4442 27.1403 20.9253 25.6214 20.9253 23.7478Z" fill="#3C1DFE"/>
<path d="M41.2805 23.7478C41.2805 21.8741 42.7994 20.3552 44.673 20.3552C46.5467 20.3552 48.0656 21.8741 48.0656 23.7478C48.0656 25.6214 46.5467 27.1403 44.673 27.1403C42.7994 27.1403 41.2805 25.6214 41.2805 23.7478Z" fill="#3C1DFE"/>
<path d="M61.6357 23.7478C61.6357 21.8741 63.1546 20.3552 65.0283 20.3552C66.9019 20.3552 68.4208 21.8741 68.4208 23.7478C68.4208 25.6214 66.9019 27.1403 65.0283 27.1403C63.1546 27.1403 61.6357 25.6214 61.6357 23.7478Z" fill="#3C1DFE"/>
<path d="M81.9909 23.7478C81.9909 21.8741 83.5098 20.3552 85.3835 20.3552C87.2571 20.3552 88.776 21.8741 88.776 23.7478C88.776 25.6214 87.2571 27.1403 85.3835 27.1403C83.5098 27.1403 81.9909 25.6214 81.9909 23.7478Z" fill="#3C1DFE"/>
<path d="M102.346 23.7478C102.346 21.8741 103.865 20.3552 105.739 20.3552C107.612 20.3552 109.131 21.8741 109.131 23.7478C109.131 25.6214 107.612 27.1403 105.739 27.1403C103.865 27.1403 102.346 25.6214 102.346 23.7478Z" fill="#3C1DFE"/>
<path d="M122.701 23.7478C122.701 21.8741 124.22 20.3552 126.094 20.3552C127.968 20.3552 129.486 21.8741 129.486 23.7478C129.486 25.6214 127.968 27.1403 126.094 27.1403C124.22 27.1403 122.701 25.6214 122.701 23.7478Z" fill="#3C1DFE"/>
<path d="M143.057 23.7478C143.057 21.8741 144.575 20.3552 146.449 20.3552C148.323 20.3552 149.842 21.8741 149.842 23.7478C149.842 25.6214 148.323 27.1403 146.449 27.1403C144.575 27.1403 143.057 25.6214 143.057 23.7478Z" fill="#3C1DFE"/>
<path d="M0.570068 44.103C0.570068 42.2293 2.08896 40.7104 3.9626 40.7104C5.83625 40.7104 7.35514 42.2293 7.35514 44.103C7.35514 45.9766 5.83625 47.4955 3.9626 47.4955C2.08896 47.4955 0.570068 45.9766 0.570068 44.103Z" fill="#3C1DFE"/>
<path d="M20.9253 44.103C20.9253 42.2293 22.4442 40.7104 24.3178 40.7104C26.1915 40.7104 27.7104 42.2293 27.7104 44.103C27.7104 45.9766 26.1915 47.4955 24.3178 47.4955C22.4442 47.4955 20.9253 45.9766 20.9253 44.103Z" fill="#3C1DFE"/>
<path d="M41.2805 44.103C41.2805 42.2293 42.7994 40.7104 44.673 40.7104C46.5467 40.7104 48.0656 42.2293 48.0656 44.103C48.0656 45.9766 46.5467 47.4955 44.673 47.4955C42.7994 47.4955 41.2805 45.9766 41.2805 44.103Z" fill="#3C1DFE"/>
<path d="M61.6357 44.103C61.6357 42.2293 63.1546 40.7104 65.0283 40.7104C66.9019 40.7104 68.4208 42.2293 68.4208 44.103C68.4208 45.9766 66.9019 47.4955 65.0283 47.4955C63.1546 47.4955 61.6357 45.9766 61.6357 44.103Z" fill="#3C1DFE"/>
<path d="M81.9909 44.103C81.9909 42.2293 83.5098 40.7104 85.3835 40.7104C87.2571 40.7104 88.776 42.2293 88.776 44.103C88.776 45.9766 87.2571 47.4955 85.3835 47.4955C83.5098 47.4955 81.9909 45.9766 81.9909 44.103Z" fill="#3C1DFE"/>
<path d="M102.346 44.103C102.346 42.2293 103.865 40.7104 105.739 40.7104C107.612 40.7104 109.131 42.2293 109.131 44.103C109.131 45.9766 107.612 47.4955 105.739 47.4955C103.865 47.4955 102.346 45.9766 102.346 44.103Z" fill="#3C1DFE"/>
<path d="M122.701 44.103C122.701 42.2293 124.22 40.7104 126.094 40.7104C127.968 40.7104 129.486 42.2293 129.486 44.103C129.486 45.9766 127.968 47.4955 126.094 47.4955C124.22 47.4955 122.701 45.9766 122.701 44.103Z" fill="#3C1DFE"/>
<path d="M143.057 44.103C143.057 42.2293 144.575 40.7104 146.449 40.7104C148.323 40.7104 149.842 42.2293 149.842 44.103C149.842 45.9766 148.323 47.4955 146.449 47.4955C144.575 47.4955 143.057 45.9766 143.057 44.103Z" fill="#3C1DFE"/>
<path d="M0.570068 64.4582C0.570068 62.5845 2.08896 61.0657 3.9626 61.0657C5.83625 61.0657 7.35514 62.5845 7.35514 64.4582C7.35514 66.3318 5.83625 67.8507 3.9626 67.8507C2.08896 67.8507 0.570068 66.3318 0.570068 64.4582Z" fill="#3C1DFE"/>
<path d="M20.9253 64.4582C20.9253 62.5845 22.4442 61.0657 24.3178 61.0657C26.1915 61.0657 27.7104 62.5845 27.7104 64.4582C27.7104 66.3318 26.1915 67.8507 24.3178 67.8507C22.4442 67.8507 20.9253 66.3318 20.9253 64.4582Z" fill="#3C1DFE"/>
<path d="M41.2805 64.4582C41.2805 62.5845 42.7994 61.0657 44.673 61.0657C46.5467 61.0657 48.0656 62.5845 48.0656 64.4582C48.0656 66.3318 46.5467 67.8507 44.673 67.8507C42.7994 67.8507 41.2805 66.3318 41.2805 64.4582Z" fill="#3C1DFE"/>
<path d="M61.6357 64.4582C61.6357 62.5845 63.1546 61.0657 65.0283 61.0657C66.9019 61.0657 68.4208 62.5845 68.4208 64.4582C68.4208 66.3318 66.9019 67.8507 65.0283 67.8507C63.1546 67.8507 61.6357 66.3318 61.6357 64.4582Z" fill="#3C1DFE"/>
<path d="M81.9909 64.4582C81.9909 62.5845 83.5098 61.0657 85.3835 61.0657C87.2571 61.0657 88.776 62.5845 88.776 64.4582C88.776 66.3318 87.2571 67.8507 85.3835 67.8507C83.5098 67.8507 81.9909 66.3318 81.9909 64.4582Z" fill="#3C1DFE"/>
<path d="M102.346 64.4582C102.346 62.5845 103.865 61.0657 105.739 61.0657C107.612 61.0657 109.131 62.5845 109.131 64.4582C109.131 66.3318 107.612 67.8507 105.739 67.8507C103.865 67.8507 102.346 66.3318 102.346 64.4582Z" fill="#3C1DFE"/>
<path d="M122.701 64.4582C122.701 62.5845 124.22 61.0657 126.094 61.0657C127.968 61.0657 129.486 62.5845 129.486 64.4582C129.486 66.3318 127.968 67.8507 126.094 67.8507C124.22 67.8507 122.701 66.3318 122.701 64.4582Z" fill="#3C1DFE"/>
<path d="M143.057 64.4582C143.057 62.5845 144.575 61.0657 146.449 61.0657C148.323 61.0657 149.842 62.5845 149.842 64.4582C149.842 66.3318 148.323 67.8507 146.449 67.8507C144.575 67.8507 143.057 66.3318 143.057 64.4582Z" fill="#3C1DFE"/>
<path d="M0.570068 84.8134C0.570068 82.9398 2.08896 81.4209 3.9626 81.4209C5.83625 81.4209 7.35514 82.9398 7.35514 84.8134C7.35514 86.687 5.83625 88.2059 3.9626 88.2059C2.08896 88.2059 0.570068 86.687 0.570068 84.8134Z" fill="#3C1DFE"/>
<path d="M20.9253 84.8134C20.9253 82.9398 22.4442 81.4209 24.3178 81.4209C26.1915 81.4209 27.7104 82.9398 27.7104 84.8134C27.7104 86.687 26.1915 88.2059 24.3178 88.2059C22.4442 88.2059 20.9253 86.687 20.9253 84.8134Z" fill="#3C1DFE"/>
<path d="M41.2805 84.8134C41.2805 82.9398 42.7994 81.4209 44.673 81.4209C46.5467 81.4209 48.0656 82.9398 48.0656 84.8134C48.0656 86.687 46.5467 88.2059 44.673 88.2059C42.7994 88.2059 41.2805 86.687 41.2805 84.8134Z" fill="#3C1DFE"/>
<path d="M61.6357 84.8134C61.6357 82.9398 63.1546 81.4209 65.0283 81.4209C66.9019 81.4209 68.4208 82.9398 68.4208 84.8134C68.4208 86.687 66.9019 88.2059 65.0283 88.2059C63.1546 88.2059 61.6357 86.687 61.6357 84.8134Z" fill="#3C1DFE"/>
<path d="M81.9909 84.8134C81.9909 82.9398 83.5098 81.4209 85.3835 81.4209C87.2571 81.4209 88.776 82.9398 88.776 84.8134C88.776 86.687 87.2571 88.2059 85.3835 88.2059C83.5098 88.2059 81.9909 86.687 81.9909 84.8134Z" fill="#3C1DFE"/>
<path d="M102.346 84.8134C102.346 82.9398 103.865 81.4209 105.739 81.4209C107.612 81.4209 109.131 82.9398 109.131 84.8134C109.131 86.687 107.612 88.2059 105.739 88.2059C103.865 88.2059 102.346 86.687 102.346 84.8134Z" fill="#3C1DFE"/>
<path d="M122.701 84.8134C122.701 82.9398 124.22 81.4209 126.094 81.4209C127.968 81.4209 129.486 82.9398 129.486 84.8134C129.486 86.687 127.968 88.2059 126.094 88.2059C124.22 88.2059 122.701 86.687 122.701 84.8134Z" fill="#3C1DFE"/>
<path d="M143.057 84.8134C143.057 82.9398 144.575 81.4209 146.449 81.4209C148.323 81.4209 149.842 82.9398 149.842 84.8134C149.842 86.687 148.323 88.2059 146.449 88.2059C144.575 88.2059 143.057 86.687 143.057 84.8134Z" fill="#3C1DFE"/>
<path d="M0.570068 105.169C0.570068 103.295 2.08896 101.776 3.9626 101.776C5.83625 101.776 7.35514 103.295 7.35514 105.169C7.35514 107.042 5.83625 108.561 3.9626 108.561C2.08896 108.561 0.570068 107.042 0.570068 105.169Z" fill="#3C1DFE"/>
<path d="M20.9253 105.169C20.9253 103.295 22.4442 101.776 24.3178 101.776C26.1915 101.776 27.7104 103.295 27.7104 105.169C27.7104 107.042 26.1915 108.561 24.3178 108.561C22.4442 108.561 20.9253 107.042 20.9253 105.169Z" fill="#3C1DFE"/>
<path d="M41.2805 105.169C41.2805 103.295 42.7994 101.776 44.673 101.776C46.5467 101.776 48.0656 103.295 48.0656 105.169C48.0656 107.042 46.5467 108.561 44.673 108.561C42.7994 108.561 41.2805 107.042 41.2805 105.169Z" fill="#3C1DFE"/>
<path d="M61.6357 105.169C61.6357 103.295 63.1546 101.776 65.0283 101.776C66.9019 101.776 68.4208 103.295 68.4208 105.169C68.4208 107.042 66.9019 108.561 65.0283 108.561C63.1546 108.561 61.6357 107.042 61.6357 105.169Z" fill="#3C1DFE"/>
<path d="M81.9909 105.169C81.9909 103.295 83.5098 101.776 85.3835 101.776C87.2571 101.776 88.776 103.295 88.776 105.169C88.776 107.042 87.2571 108.561 85.3835 108.561C83.5098 108.561 81.9909 107.042 81.9909 105.169Z" fill="#3C1DFE"/>
<path d="M102.346 105.169C102.346 103.295 103.865 101.776 105.739 101.776C107.612 101.776 109.131 103.295 109.131 105.169C109.131 107.042 107.612 108.561 105.739 108.561C103.865 108.561 102.346 107.042 102.346 105.169Z" fill="#3C1DFE"/>
<path d="M122.701 105.169C122.701 103.295 124.22 101.776 126.094 101.776C127.968 101.776 129.486 103.295 129.486 105.169C129.486 107.042 127.968 108.561 126.094 108.561C124.22 108.561 122.701 107.042 122.701 105.169Z" fill="#3C1DFE"/>
<path d="M143.057 105.169C143.057 103.295 144.575 101.776 146.449 101.776C148.323 101.776 149.842 103.295 149.842 105.169C149.842 107.042 148.323 108.561 146.449 108.561C144.575 108.561 143.057 107.042 143.057 105.169Z" fill="#3C1DFE"/>
<path d="M0.570068 125.524C0.570068 123.65 2.08896 122.131 3.9626 122.131C5.83625 122.131 7.35514 123.65 7.35514 125.524C7.35514 127.397 5.83625 128.916 3.9626 128.916C2.08896 128.916 0.570068 127.397 0.570068 125.524Z" fill="#3C1DFE"/>
<path d="M20.9253 125.524C20.9253 123.65 22.4442 122.131 24.3178 122.131C26.1915 122.131 27.7104 123.65 27.7104 125.524C27.7104 127.397 26.1915 128.916 24.3178 128.916C22.4442 128.916 20.9253 127.397 20.9253 125.524Z" fill="#3C1DFE"/>
<path d="M41.2805 125.524C41.2805 123.65 42.7994 122.131 44.673 122.131C46.5467 122.131 48.0656 123.65 48.0656 125.524C48.0656 127.397 46.5467 128.916 44.673 128.916C42.7994 128.916 41.2805 127.397 41.2805 125.524Z" fill="#3C1DFE"/>
<path d="M61.6357 125.524C61.6357 123.65 63.1546 122.131 65.0283 122.131C66.9019 122.131 68.4208 123.65 68.4208 125.524C68.4208 127.397 66.9019 128.916 65.0283 128.916C63.1546 128.916 61.6357 127.397 61.6357 125.524Z" fill="#3C1DFE"/>
<path d="M81.9909 125.524C81.9909 123.65 83.5098 122.131 85.3835 122.131C87.2571 122.131 88.776 123.65 88.776 125.524C88.776 127.397 87.2571 128.916 85.3835 128.916C83.5098 128.916 81.9909 127.397 81.9909 125.524Z" fill="#3C1DFE"/>
<path d="M102.346 125.524C102.346 123.65 103.865 122.131 105.739 122.131C107.612 122.131 109.131 123.65 109.131 125.524C109.131 127.397 107.612 128.916 105.739 128.916C103.865 128.916 102.346 127.397 102.346 125.524Z" fill="#3C1DFE"/>
<path d="M122.701 125.524C122.701 123.65 124.22 122.131 126.094 122.131C127.968 122.131 129.486 123.65 129.486 125.524C129.486 127.397 127.968 128.916 126.094 128.916C124.22 128.916 122.701 127.397 122.701 125.524Z" fill="#3C1DFE"/>
<path d="M143.057 125.524C143.057 123.65 144.575 122.131 146.449 122.131C148.323 122.131 149.842 123.65 149.842 125.524C149.842 127.397 148.323 128.916 146.449 128.916C144.575 128.916 143.057 127.397 143.057 125.524Z" fill="#3C1DFE"/>
<path d="M0.570068 145.879C0.570068 144.005 2.08896 142.487 3.9626 142.487C5.83625 142.487 7.35514 144.005 7.35514 145.879C7.35514 147.753 5.83625 149.272 3.9626 149.272C2.08896 149.272 0.570068 147.753 0.570068 145.879Z" fill="#3C1DFE"/>
<path d="M20.9253 145.879C20.9253 144.005 22.4442 142.487 24.3178 142.487C26.1915 142.487 27.7104 144.005 27.7104 145.879C27.7104 147.753 26.1915 149.272 24.3178 149.272C22.4442 149.272 20.9253 147.753 20.9253 145.879Z" fill="#3C1DFE"/>
<path d="M41.2805 145.879C41.2805 144.005 42.7994 142.487 44.673 142.487C46.5467 142.487 48.0656 144.005 48.0656 145.879C48.0656 147.753 46.5467 149.272 44.673 149.272C42.7994 149.272 41.2805 147.753 41.2805 145.879Z" fill="#3C1DFE"/>
<path d="M61.6357 145.879C61.6357 144.005 63.1546 142.487 65.0283 142.487C66.9019 142.487 68.4208 144.005 68.4208 145.879C68.4208 147.753 66.9019 149.272 65.0283 149.272C63.1546 149.272 61.6357 147.753 61.6357 145.879Z" fill="#3C1DFE"/>
<path d="M81.9909 145.879C81.9909 144.005 83.5098 142.487 85.3835 142.487C87.2571 142.487 88.776 144.005 88.776 145.879C88.776 147.753 87.2571 149.272 85.3835 149.272C83.5098 149.272 81.9909 147.753 81.9909 145.879Z" fill="#3C1DFE"/>
<path d="M102.346 145.879C102.346 144.005 103.865 142.487 105.739 142.487C107.612 142.487 109.131 144.005 109.131 145.879C109.131 147.753 107.612 149.272 105.739 149.272C103.865 149.272 102.346 147.753 102.346 145.879Z" fill="#3C1DFE"/>
<path d="M122.701 145.879C122.701 144.005 124.22 142.487 126.094 142.487C127.968 142.487 129.486 144.005 129.486 145.879C129.486 147.753 127.968 149.272 126.094 149.272C124.22 149.272 122.701 147.753 122.701 145.879Z" fill="#3C1DFE"/>
<path d="M143.057 145.879C143.057 144.005 144.575 142.487 146.449 142.487C148.323 142.487 149.842 144.005 149.842 145.879C149.842 147.753 148.323 149.272 146.449 149.272C144.575 149.272 143.057 147.753 143.057 145.879Z" fill="#3C1DFE"/>
</g>
</svg>
